<svg id="visual" viewBox="0 0 900 600" width="900" height="600" xmlns="http://www.w3.org/2000/svg" xmlns:xlink="http://www.w3.org/1999/xlink" version="1.1"><g><g transform="translate(458 426)"><path d="M0 -109.1L85.3 -68L106.4 24.3L47.3 98.3L-47.3 98.3L-106.4 24.3L-85.3 -68Z" fill="none" stroke="#273a5f" stroke-width="2"></path></g><g transform="translate(159 217)"><path d="M0 -84L65.7 -52.4L81.9 18.7L36.4 75.7L-36.4 75.7L-81.9 18.7L-65.7 -52.4Z" fill="none" stroke="#273a5f" stroke-width="2"></path></g><g transform="translate(858 50)"><path d="M0 -107L83.7 -66.7L104.3 23.8L46.4 96.4L-46.4 96.4L-104.3 23.8L-83.7 -66.7Z" stroke="#273a5f" fill="none" stroke-width="2"></path></g><g transform="translate(251 471)"><path d="M0 -61L47.7 -38L59.5 13.6L26.5 55L-26.5 55L-59.5 13.6L-47.7 -38Z" stroke="#273a5f" fill="none" stroke-width="2"></path></g><g transform="translate(569 1)"><path d="M0 -81L63.3 -50.5L79 18L35.1 73L-35.1 73L-79 18L-63.3 -50.5Z" stroke="#273a5f" fill="none" stroke-width="2"></path></g><g transform="translate(809 229)"><path d="M0 -22L17.2 -13.7L21.4 4.9L9.5 19.8L-9.5 19.8L-21.4 4.9L-17.2 -13.7Z" stroke="#273a5f" fill="none" stroke-width="2"></path></g><g transform="translate(306 59)"><path d="M0 -56L43.8 -34.9L54.6 12.5L24.3 50.5L-24.3 50.5L-54.6 12.5L-43.8 -34.9Z" stroke="#273a5f" fill="none" stroke-width="2"></path></g><g transform="translate(815 401)"><path d="M0 -104L81.3 -64.8L101.4 23.1L45.1 93.7L-45.1 93.7L-101.4 23.1L-81.3 -64.8Z" stroke="#273a5f" fill="none" stroke-width="2"></path></g><g transform="translate(4 372)"><path d="M0 -72L56.3 -44.9L70.2 16L31.2 64.9L-31.2 64.9L-70.2 16L-56.3 -44.9Z" stroke="#273a5f" fill="none" stroke-width="2"></path></g><g transform="translate(386 208)"><path d="M0 -42L32.8 -26.2L40.9 9.3L18.2 37.8L-18.2 37.8L-40.9 9.3L-32.8 -26.2Z" stroke="#273a5f" fill="none" stroke-width="2"></path></g><g transform="translate(41 8)"><path d="M0 -16L12.5 -10L15.6 3.6L6.9 14.4L-6.9 14.4L-15.6 3.6L-12.5 -10Z" stroke="#273a5f" fill="none" stroke-width="2"></path></g></g></svg>