<svg id="visual" viewBox="0 0 900 600" width="900" height="600" xmlns="http://www.w3.org/2000/svg" xmlns:xlink="http://www.w3.org/1999/xlink" version="1.1"><rect width="900" height="600" fill="#ffffff"></rect><g><g transform="translate(418 142)"><path d="M0 -228.8L178.9 -142.7L223.1 50.9L99.3 206.1L-99.3 206.1L-223.1 50.9L-178.9 -142.7Z" fill="none" stroke="#ecf2ff" stroke-width="2"></path></g><g transform="translate(889 34)"><path d="M0 -30L23.5 -18.7L29.2 6.7L13 27L-13 27L-29.2 6.7L-23.5 -18.7Z" fill="none" stroke="#ecf2ff" stroke-width="2"></path></g><g transform="translate(189 551)"><path d="M0 -166L129.8 -103.5L161.8 36.9L72 149.6L-72 149.6L-161.8 36.9L-129.8 -103.5Z" stroke="#ecf2ff" fill="none" stroke-width="2"></path></g><g transform="translate(735 542)"><path d="M0 -180L140.7 -112.2L175.5 40.1L78.1 162.2L-78.1 162.2L-175.5 40.1L-140.7 -112.2Z" stroke="#ecf2ff" fill="none" stroke-width="2"></path></g></g></svg>