<svg id="visual" viewBox="0 0 960 540" width="960" height="540" xmlns="http://www.w3.org/2000/svg" xmlns:xlink="http://www.w3.org/1999/xlink" version="1.1"><path d="M0 443L26.7 438.8C53.3 434.7 106.7 426.3 160 419.7C213.3 413 266.7 408 320 413.7C373.3 419.3 426.7 435.7 480 437.2C533.3 438.7 586.7 425.3 640 417.2C693.3 409 746.7 406 800 407.2C853.3 408.3 906.7 413.7 933.3 416.3L960 419L960 541L933.3 541C906.7 541 853.3 541 800 541C746.7 541 693.3 541 640 541C586.7 541 533.3 541 480 541C426.7 541 373.3 541 320 541C266.7 541 213.3 541 160 541C106.7 541 53.3 541 26.7 541L0 541Z" fill="#ecf2ff" stroke-linecap="round" stroke-linejoin="miter"></path></svg>