<svg id="visual" viewBox="0 0 960 540" width="960" height="540" xmlns="http://www.w3.org/2000/svg" xmlns:xlink="http://www.w3.org/1999/xlink" version="1.1"><g stroke-width="1" stroke-linejoin="bevel"><path d="M474 263L513 273L486 245Z" fill="#ffffff" stroke="#FFFFFF"></path><path d="M513 273L526 260L486 245Z" fill="#fcfcfc" stroke="#FFFFFF"></path><path d="M474 263L509 320L513 273Z" fill="#fefefe" stroke="#FFFFFF"></path><path d="M513 273L530 330L526 260Z" fill="#fafafa" stroke="#FFFFFF"></path><path d="M486 245L437 236L474 263Z" fill="#fcfcfc" stroke="#FFFFFF"></path><path d="M474 263L454 334L509 320Z" fill="#ffffff" stroke="#FFFFFF"></path><path d="M509 320L530 330L513 273Z" fill="#fefefe" stroke="#FFFFFF"></path><path d="M526 260L514 188L486 245Z" fill="#f9f9f9" stroke="#FFFFFF"></path><path d="M486 245L473 183L437 236Z" fill="#fbfbfb" stroke="#FFFFFF"></path><path d="M410 338L454 334L474 263Z" fill="#fbfbfb" stroke="#FFFFFF"></path><path d="M509 320L492 371L530 330Z" fill="#fdfdfd" stroke="#FFFFFF"></path><path d="M514 188L473 183L486 245Z" fill="#fafafa" stroke="#FFFFFF"></path><path d="M591 229L551 200L526 260Z" fill="#fdfdfd" stroke="#FFFFFF"></path><path d="M526 260L551 200L514 188Z" fill="#fdfdfd" stroke="#FFFFFF"></path><path d="M551 200L524 168L514 188Z" fill="#fefefe" stroke="#FFFFFF"></path><path d="M514 188L491 146L473 183Z" fill="#fdfdfd" stroke="#FFFFFF"></path><path d="M611 268L591 229L526 260Z" fill="#fdfdfd" stroke="#FFFFFF"></path><path d="M551 200L576 149L524 168Z" fill="#fbfbfb" stroke="#FFFFFF"></path><path d="M454 334L492 371L509 320Z" fill="#fdfdfd" stroke="#FFFFFF"></path><path d="M437 236L410 338L474 263Z" fill="#fefefe" stroke="#FFFFFF"></path><path d="M454 334L457 379L492 371Z" fill="#fafafa" stroke="#FFFFFF"></path><path d="M633 261L611 268L689 330Z" fill="#ffffff" stroke="#FFFFFF"></path><path d="M530 330L611 268L526 260Z" fill="#ffffff" stroke="#FFFFFF"></path><path d="M524 168L491 146L514 188Z" fill="#fbfbfb" stroke="#FFFFFF"></path><path d="M379 195L366 262L437 236Z" fill="#fafafa" stroke="#FFFFFF"></path><path d="M366 262L402 340L410 338Z" fill="#fafafa" stroke="#FFFFFF"></path><path d="M410 338L457 379L454 334Z" fill="#fdfdfd" stroke="#FFFFFF"></path><path d="M402 340L457 379L410 338Z" fill="#f9f9f9" stroke="#FFFFFF"></path><path d="M387 187L437 236L473 183Z" fill="#fdfdfd" stroke="#FFFFFF"></path><path d="M437 236L366 262L410 338Z" fill="#ffffff" stroke="#FFFFFF"></path><path d="M627 236L607 200L591 229Z" fill="#fdfdfd" stroke="#FFFFFF"></path><path d="M591 229L607 200L551 200Z" fill="#fafafa" stroke="#FFFFFF"></path><path d="M534 128L485 123L491 146Z" fill="#fdfdfd" stroke="#FFFFFF"></path><path d="M455 109L387 187L473 183Z" fill="#f9f9f9" stroke="#FFFFFF"></path><path d="M387 187L379 195L437 236Z" fill="#fcfcfc" stroke="#FFFFFF"></path><path d="M611 268L627 236L591 229Z" fill="#fdfdfd" stroke="#FFFFFF"></path><path d="M447 422L479 400L457 379Z" fill="#fbfbfb" stroke="#FFFFFF"></path><path d="M457 379L479 400L492 371Z" fill="#fafafa" stroke="#FFFFFF"></path><path d="M492 371L535 407L530 330Z" fill="#fcfcfc" stroke="#FFFFFF"></path><path d="M366 262L379 338L402 340Z" fill="#fefefe" stroke="#FFFFFF"></path><path d="M376 418L447 422L457 379Z" fill="#fcfcfc" stroke="#FFFFFF"></path><path d="M600 397L611 268L530 330Z" fill="#fafafa" stroke="#FFFFFF"></path><path d="M611 268L633 261L627 236Z" fill="#fbfbfb" stroke="#FFFFFF"></path><path d="M607 200L576 149L551 200Z" fill="#fdfdfd" stroke="#FFFFFF"></path><path d="M534 128L491 146L524 168Z" fill="#fbfbfb" stroke="#FFFFFF"></path><path d="M491 146L476 123L473 183Z" fill="#ffffff" stroke="#FFFFFF"></path><path d="M576 149L534 128L524 168Z" fill="#fcfcfc" stroke="#FFFFFF"></path><path d="M485 123L476 123L491 146Z" fill="#fdfdfd" stroke="#FFFFFF"></path><path d="M479 400L535 407L492 371Z" fill="#ffffff" stroke="#FFFFFF"></path><path d="M327 320L370 354L379 338Z" fill="#fcfcfc" stroke="#FFFFFF"></path><path d="M379 338L370 354L402 340Z" fill="#fefefe" stroke="#FFFFFF"></path><path d="M459 66L455 109L485 123Z" fill="#fefefe" stroke="#FFFFFF"></path><path d="M485 123L455 109L476 123Z" fill="#f9f9f9" stroke="#FFFFFF"></path><path d="M476 123L455 109L473 183Z" fill="#ffffff" stroke="#FFFFFF"></path><path d="M387 187L367 162L379 195Z" fill="#fefefe" stroke="#FFFFFF"></path><path d="M455 109L367 162L387 187Z" fill="#fcfcfc" stroke="#FFFFFF"></path><path d="M379 195L330 237L366 262Z" fill="#fafafa" stroke="#FFFFFF"></path><path d="M376 418L457 379L402 340Z" fill="#f9f9f9" stroke="#FFFFFF"></path><path d="M479 400L532 473L535 407Z" fill="#fefefe" stroke="#FFFFFF"></path><path d="M325 154L330 237L379 195Z" fill="#fcfcfc" stroke="#FFFFFF"></path><path d="M366 262L327 320L379 338Z" fill="#fafafa" stroke="#FFFFFF"></path><path d="M591 413L600 397L535 407Z" fill="#ffffff" stroke="#FFFFFF"></path><path d="M535 407L600 397L530 330Z" fill="#fdfdfd" stroke="#FFFFFF"></path><path d="M602 122L536 93L534 128Z" fill="#fcfcfc" stroke="#FFFFFF"></path><path d="M534 128L536 93L485 123Z" fill="#fafafa" stroke="#FFFFFF"></path><path d="M607 200L640 165L576 149Z" fill="#fafafa" stroke="#FFFFFF"></path><path d="M576 149L602 122L534 128Z" fill="#fafafa" stroke="#FFFFFF"></path><path d="M627 236L640 165L607 200Z" fill="#fcfcfc" stroke="#FFFFFF"></path><path d="M704 250L640 165L627 236Z" fill="#fefefe" stroke="#FFFFFF"></path><path d="M313 288L327 320L366 262Z" fill="#fbfbfb" stroke="#FFFFFF"></path><path d="M370 354L376 418L402 340Z" fill="#fafafa" stroke="#FFFFFF"></path><path d="M585 446L591 413L535 407Z" fill="#fcfcfc" stroke="#FFFFFF"></path><path d="M640 165L602 122L576 149Z" fill="#fefefe" stroke="#FFFFFF"></path><path d="M591 413L610 401L600 397Z" fill="#f9f9f9" stroke="#FFFFFF"></path><path d="M683 352L689 330L611 268Z" fill="#fefefe" stroke="#FFFFFF"></path><path d="M330 237L313 288L366 262Z" fill="#fbfbfb" stroke="#FFFFFF"></path><path d="M325 154L312 247L330 237Z" fill="#ffffff" stroke="#FFFFFF"></path><path d="M330 237L312 247L313 288Z" fill="#ffffff" stroke="#FFFFFF"></path><path d="M313 288L317 311L327 320Z" fill="#fbfbfb" stroke="#FFFFFF"></path><path d="M353 399L370 354L309 364Z" fill="#fafafa" stroke="#FFFFFF"></path><path d="M353 399L364 405L370 354Z" fill="#fcfcfc" stroke="#FFFFFF"></path><path d="M640 165L624 120L602 122Z" fill="#fdfdfd" stroke="#FFFFFF"></path><path d="M602 122L636 81L536 93Z" fill="#fefefe" stroke="#FFFFFF"></path><path d="M364 405L376 418L370 354Z" fill="#ffffff" stroke="#FFFFFF"></path><path d="M309 364L370 354L327 320Z" fill="#fafafa" stroke="#FFFFFF"></path><path d="M364 405L356 406L376 418Z" fill="#fcfcfc" stroke="#FFFFFF"></path><path d="M591 413L625 410L610 401Z" fill="#fdfdfd" stroke="#FFFFFF"></path><path d="M683 352L611 268L600 397Z" fill="#fafafa" stroke="#FFFFFF"></path><path d="M633 261L704 250L627 236Z" fill="#fefefe" stroke="#FFFFFF"></path><path d="M353 399L356 406L364 405Z" fill="#fcfcfc" stroke="#FFFFFF"></path><path d="M536 93L459 66L485 123Z" fill="#fafafa" stroke="#FFFFFF"></path><path d="M455 109L387 90L367 162Z" fill="#fefefe" stroke="#FFFFFF"></path><path d="M460 49L459 66L536 93Z" fill="#fdfdfd" stroke="#FFFFFF"></path><path d="M387 90L325 154L367 162Z" fill="#fbfbfb" stroke="#FFFFFF"></path><path d="M367 162L325 154L379 195Z" fill="#fbfbfb" stroke="#FFFFFF"></path><path d="M532 473L585 446L535 407Z" fill="#ffffff" stroke="#FFFFFF"></path><path d="M591 413L585 446L625 410Z" fill="#fdfdfd" stroke="#FFFFFF"></path><path d="M532 473L479 400L447 422Z" fill="#ffffff" stroke="#FFFFFF"></path><path d="M459 66L387 90L455 109Z" fill="#fafafa" stroke="#FFFFFF"></path><path d="M683 352L600 397L610 401Z" fill="#fbfbfb" stroke="#FFFFFF"></path><path d="M313 288L280 307L317 311Z" fill="#ffffff" stroke="#FFFFFF"></path><path d="M317 311L303 346L327 320Z" fill="#fafafa" stroke="#FFFFFF"></path><path d="M353 399L311 420L356 406Z" fill="#ffffff" stroke="#FFFFFF"></path><path d="M312 247L289 266L313 288Z" fill="#fcfcfc" stroke="#FFFFFF"></path><path d="M225 213L289 266L312 247Z" fill="#fafafa" stroke="#FFFFFF"></path><path d="M625 410L683 352L610 401Z" fill="#fdfdfd" stroke="#FFFFFF"></path><path d="M280 307L303 346L317 311Z" fill="#fbfbfb" stroke="#FFFFFF"></path><path d="M689 330L704 250L633 261Z" fill="#fefefe" stroke="#FFFFFF"></path><path d="M685 79L636 81L624 120Z" fill="#ffffff" stroke="#FFFFFF"></path><path d="M303 346L309 364L327 320Z" fill="#f9f9f9" stroke="#FFFFFF"></path><path d="M363 434L373 438L376 418Z" fill="#fbfbfb" stroke="#FFFFFF"></path><path d="M376 418L373 438L447 422Z" fill="#ffffff" stroke="#FFFFFF"></path><path d="M363 434L376 418L356 406Z" fill="#fafafa" stroke="#FFFFFF"></path><path d="M522 499L532 473L447 422Z" fill="#fafafa" stroke="#FFFFFF"></path><path d="M314 433L363 434L356 406Z" fill="#fbfbfb" stroke="#FFFFFF"></path><path d="M463 35L460 49L536 93Z" fill="#fbfbfb" stroke="#FFFFFF"></path><path d="M459 66L404 52L387 90Z" fill="#f9f9f9" stroke="#FFFFFF"></path><path d="M289 266L280 307L313 288Z" fill="#fbfbfb" stroke="#FFFFFF"></path><path d="M277 405L311 420L309 364Z" fill="#fafafa" stroke="#FFFFFF"></path><path d="M724 269L715 243L704 250Z" fill="#fafafa" stroke="#FFFFFF"></path><path d="M704 250L722 232L640 165Z" fill="#fdfdfd" stroke="#FFFFFF"></path><path d="M722 286L704 250L689 330Z" fill="#fcfcfc" stroke="#FFFFFF"></path><path d="M721 308L722 286L689 330Z" fill="#fbfbfb" stroke="#FFFFFF"></path><path d="M722 286L724 269L704 250Z" fill="#fcfcfc" stroke="#FFFFFF"></path><path d="M724 269L722 232L715 243Z" fill="#fbfbfb" stroke="#FFFFFF"></path><path d="M715 243L722 232L704 250Z" fill="#fefefe" stroke="#FFFFFF"></path><path d="M460 49L404 52L459 66Z" fill="#fafafa" stroke="#FFFFFF"></path><path d="M387 90L303 119L325 154Z" fill="#fafafa" stroke="#FFFFFF"></path><path d="M738 327L721 308L689 330Z" fill="#fafafa" stroke="#FFFFFF"></path><path d="M722 286L762 271L724 269Z" fill="#fbfbfb" stroke="#FFFFFF"></path><path d="M499 0L463 35L504 0Z" fill="#fefefe" stroke="#FFFFFF"></path><path d="M460 49L463 35L404 52Z" fill="#ffffff" stroke="#FFFFFF"></path><path d="M707 143L624 120L640 165Z" fill="#fdfdfd" stroke="#FFFFFF"></path><path d="M624 120L636 81L602 122Z" fill="#fafafa" stroke="#FFFFFF"></path><path d="M685 417L679 406L669 438Z" fill="#ffffff" stroke="#FFFFFF"></path><path d="M625 410L679 406L683 352Z" fill="#f9f9f9" stroke="#FFFFFF"></path><path d="M744 357L738 327L689 330Z" fill="#fbfbfb" stroke="#FFFFFF"></path><path d="M679 406L625 410L669 438Z" fill="#fbfbfb" stroke="#FFFFFF"></path><path d="M473 522L522 499L447 422Z" fill="#fcfcfc" stroke="#FFFFFF"></path><path d="M532 473L616 506L585 446Z" fill="#fbfbfb" stroke="#FFFFFF"></path><path d="M379 489L447 422L373 438Z" fill="#f9f9f9" stroke="#FFFFFF"></path><path d="M275 95L303 119L282 45Z" fill="#fbfbfb" stroke="#FFFFFF"></path><path d="M325 154L225 213L312 247Z" fill="#fdfdfd" stroke="#FFFFFF"></path><path d="M216 310L253 360L280 307Z" fill="#f9f9f9" stroke="#FFFFFF"></path><path d="M268 369L309 364L303 346Z" fill="#f9f9f9" stroke="#FFFFFF"></path><path d="M309 364L311 420L353 399Z" fill="#ffffff" stroke="#FFFFFF"></path><path d="M363 434L379 489L373 438Z" fill="#f9f9f9" stroke="#FFFFFF"></path><path d="M722 232L707 143L640 165Z" fill="#fcfcfc" stroke="#FFFFFF"></path><path d="M669 438L625 410L657 452Z" fill="#fcfcfc" stroke="#FFFFFF"></path><path d="M744 357L689 330L683 352Z" fill="#fefefe" stroke="#FFFFFF"></path><path d="M657 452L625 410L585 446Z" fill="#fcfcfc" stroke="#FFFFFF"></path><path d="M275 431L314 433L311 420Z" fill="#fafafa" stroke="#FFFFFF"></path><path d="M311 420L314 433L356 406Z" fill="#fefefe" stroke="#FFFFFF"></path><path d="M659 463L657 452L585 446Z" fill="#fafafa" stroke="#FFFFFF"></path><path d="M253 360L303 346L280 307Z" fill="#fefefe" stroke="#FFFFFF"></path><path d="M253 360L268 369L303 346Z" fill="#fefefe" stroke="#FFFFFF"></path><path d="M719 384L683 352L679 406Z" fill="#fcfcfc" stroke="#FFFFFF"></path><path d="M762 306L762 271L722 286Z" fill="#fafafa" stroke="#FFFFFF"></path><path d="M724 269L762 271L722 232Z" fill="#fafafa" stroke="#FFFFFF"></path><path d="M314 433L379 489L363 434Z" fill="#fefefe" stroke="#FFFFFF"></path><path d="M723 407L719 384L679 406Z" fill="#fdfdfd" stroke="#FFFFFF"></path><path d="M723 407L679 406L685 417Z" fill="#ffffff" stroke="#FFFFFF"></path><path d="M716 435L685 417L669 438Z" fill="#fbfbfb" stroke="#FFFFFF"></path><path d="M779 228L722 145L722 232Z" fill="#fafafa" stroke="#FFFFFF"></path><path d="M722 232L722 145L707 143Z" fill="#ffffff" stroke="#FFFFFF"></path><path d="M685 79L656 58L636 81Z" fill="#fcfcfc" stroke="#FFFFFF"></path><path d="M616 506L659 463L585 446Z" fill="#f9f9f9" stroke="#FFFFFF"></path><path d="M657 452L678 459L669 438Z" fill="#ffffff" stroke="#FFFFFF"></path><path d="M379 489L473 522L447 422Z" fill="#fdfdfd" stroke="#FFFFFF"></path><path d="M589 540L616 506L532 473Z" fill="#f9f9f9" stroke="#FFFFFF"></path><path d="M268 369L277 405L309 364Z" fill="#fafafa" stroke="#FFFFFF"></path><path d="M314 433L307 530L379 489Z" fill="#fafafa" stroke="#FFFFFF"></path><path d="M216 310L280 307L289 266Z" fill="#fefefe" stroke="#FFFFFF"></path><path d="M268 369L258 412L277 405Z" fill="#fcfcfc" stroke="#FFFFFF"></path><path d="M712 118L624 120L707 143Z" fill="#fcfcfc" stroke="#FFFFFF"></path><path d="M504 0L463 35L536 93Z" fill="#fdfdfd" stroke="#FFFFFF"></path><path d="M720 127L712 118L707 143Z" fill="#fafafa" stroke="#FFFFFF"></path><path d="M722 145L720 127L707 143Z" fill="#fefefe" stroke="#FFFFFF"></path><path d="M504 0L536 93L576 0Z" fill="#fdfdfd" stroke="#FFFFFF"></path><path d="M463 35L378 0L404 52Z" fill="#fdfdfd" stroke="#FFFFFF"></path><path d="M499 0L489 0L463 35Z" fill="#fefefe" stroke="#FFFFFF"></path><path d="M576 0L536 93L579 0Z" fill="#fafafa" stroke="#FFFFFF"></path><path d="M712 118L685 79L624 120Z" fill="#fcfcfc" stroke="#FFFFFF"></path><path d="M686 71L685 79L720 51Z" fill="#fdfdfd" stroke="#FFFFFF"></path><path d="M719 384L744 357L683 352Z" fill="#fdfdfd" stroke="#FFFFFF"></path><path d="M762 306L722 286L721 308Z" fill="#fdfdfd" stroke="#FFFFFF"></path><path d="M723 407L744 357L719 384Z" fill="#fcfcfc" stroke="#FFFFFF"></path><path d="M762 306L721 308L738 327Z" fill="#fbfbfb" stroke="#FFFFFF"></path><path d="M722 145L795 91L720 127Z" fill="#fefefe" stroke="#FFFFFF"></path><path d="M677 540L678 459L659 463Z" fill="#fbfbfb" stroke="#FFFFFF"></path><path d="M659 463L678 459L657 452Z" fill="#fefefe" stroke="#FFFFFF"></path><path d="M717 421L723 407L685 417Z" fill="#f9f9f9" stroke="#FFFFFF"></path><path d="M744 357L762 306L738 327Z" fill="#fdfdfd" stroke="#FFFFFF"></path><path d="M589 540L532 473L522 499Z" fill="#fbfbfb" stroke="#FFFFFF"></path><path d="M720 51L685 79L712 118Z" fill="#fbfbfb" stroke="#FFFFFF"></path><path d="M685 79L686 71L656 58Z" fill="#fafafa" stroke="#FFFFFF"></path><path d="M275 95L262 123L303 119Z" fill="#fbfbfb" stroke="#FFFFFF"></path><path d="M303 119L262 123L325 154Z" fill="#fafafa" stroke="#FFFFFF"></path><path d="M303 119L387 90L282 45Z" fill="#fdfdfd" stroke="#FFFFFF"></path><path d="M716 435L717 421L685 417Z" fill="#fbfbfb" stroke="#FFFFFF"></path><path d="M228 159L225 213L325 154Z" fill="#fcfcfc" stroke="#FFFFFF"></path><path d="M579 0L636 81L587 0Z" fill="#fbfbfb" stroke="#FFFFFF"></path><path d="M579 0L536 93L636 81Z" fill="#fdfdfd" stroke="#FFFFFF"></path><path d="M258 412L275 431L277 405Z" fill="#ffffff" stroke="#FFFFFF"></path><path d="M277 405L275 431L311 420Z" fill="#fbfbfb" stroke="#FFFFFF"></path><path d="M587 0L636 81L656 58Z" fill="#fefefe" stroke="#FFFFFF"></path><path d="M330 0L387 90L404 52Z" fill="#fdfdfd" stroke="#FFFFFF"></path><path d="M179 360L258 412L253 360Z" fill="#ffffff" stroke="#FFFFFF"></path><path d="M253 360L258 412L268 369Z" fill="#fafafa" stroke="#FFFFFF"></path><path d="M588 -26L587 0L624 -18Z" fill="#fefefe" stroke="#FFFFFF"></path><path d="M677 540L716 435L678 459Z" fill="#fbfbfb" stroke="#FFFFFF"></path><path d="M678 459L716 435L669 438Z" fill="#fafafa" stroke="#FFFFFF"></path><path d="M717 421L716 435L723 407Z" fill="#ffffff" stroke="#FFFFFF"></path><path d="M805 419L831 342L744 357Z" fill="#fefefe" stroke="#FFFFFF"></path><path d="M379 489L447 540L473 522Z" fill="#fcfcfc" stroke="#FFFFFF"></path><path d="M473 522L589 540L522 499Z" fill="#fafafa" stroke="#FFFFFF"></path><path d="M413 540L447 540L379 489Z" fill="#fdfdfd" stroke="#FFFFFF"></path><path d="M225 213L216 310L289 266Z" fill="#fbfbfb" stroke="#FFFFFF"></path><path d="M261 479L280 448L246 467Z" fill="#f9f9f9" stroke="#FFFFFF"></path><path d="M275 431L280 448L314 433Z" fill="#fdfdfd" stroke="#FFFFFF"></path><path d="M280 448L284 454L314 433Z" fill="#fcfcfc" stroke="#FFFFFF"></path><path d="M251 103L228 159L262 123Z" fill="#fafafa" stroke="#FFFFFF"></path><path d="M262 123L228 159L325 154Z" fill="#fdfdfd" stroke="#FFFFFF"></path><path d="M225 213L210 217L216 310Z" fill="#fbfbfb" stroke="#FFFFFF"></path><path d="M803 266L779 228L762 271Z" fill="#f9f9f9" stroke="#FFFFFF"></path><path d="M762 271L779 228L722 232Z" fill="#fdfdfd" stroke="#FFFFFF"></path><path d="M389 533L413 540L379 489Z" fill="#ffffff" stroke="#FFFFFF"></path><path d="M489 0L378 0L463 35Z" fill="#fdfdfd" stroke="#FFFFFF"></path><path d="M228 159L210 217L225 213Z" fill="#fafafa" stroke="#FFFFFF"></path><path d="M275 95L251 103L262 123Z" fill="#fefefe" stroke="#FFFFFF"></path><path d="M261 78L264 90L275 95Z" fill="#fefefe" stroke="#FFFFFF"></path><path d="M369 540L389 533L379 489Z" fill="#fbfbfb" stroke="#FFFFFF"></path><path d="M264 90L251 103L275 95Z" fill="#fefefe" stroke="#FFFFFF"></path><path d="M447 540L589 540L473 522Z" fill="#fefefe" stroke="#FFFFFF"></path><path d="M616 506L660 540L659 463Z" fill="#fefefe" stroke="#FFFFFF"></path><path d="M389 533L399 540L413 540Z" fill="#fcfcfc" stroke="#FFFFFF"></path><path d="M282 45L261 78L275 95Z" fill="#fefefe" stroke="#FFFFFF"></path><path d="M264 90L261 78L251 103Z" fill="#fefefe" stroke="#FFFFFF"></path><path d="M197 90L177 192L228 159Z" fill="#fefefe" stroke="#FFFFFF"></path><path d="M535 -41L363 -6L378 0Z" fill="#ffffff" stroke="#FFFFFF"></path><path d="M378 0L330 0L404 52Z" fill="#fefefe" stroke="#FFFFFF"></path><path d="M535 -41L378 0L489 0Z" fill="#ffffff" stroke="#FFFFFF"></path><path d="M535 -41L489 0L499 0Z" fill="#fefefe" stroke="#FFFFFF"></path><path d="M535 -41L499 0L504 0Z" fill="#fdfdfd" stroke="#FFFFFF"></path><path d="M535 -41L504 0L576 0Z" fill="#fafafa" stroke="#FFFFFF"></path><path d="M588 -26L576 0L579 0Z" fill="#fafafa" stroke="#FFFFFF"></path><path d="M589 540L614 540L616 506Z" fill="#ffffff" stroke="#FFFFFF"></path><path d="M307 530L369 540L379 489Z" fill="#fefefe" stroke="#FFFFFF"></path><path d="M389 533L369 540L399 540Z" fill="#fefefe" stroke="#FFFFFF"></path><path d="M656 0L587 0L656 58Z" fill="#fefefe" stroke="#FFFFFF"></path><path d="M587 0L588 -26L579 0Z" fill="#fafafa" stroke="#FFFFFF"></path><path d="M330 0L282 45L387 90Z" fill="#fefefe" stroke="#FFFFFF"></path><path d="M588 -26L535 -41L576 0Z" fill="#fbfbfb" stroke="#FFFFFF"></path><path d="M762 306L803 266L762 271Z" fill="#fbfbfb" stroke="#FFFFFF"></path><path d="M720 51L712 118L795 91Z" fill="#f9f9f9" stroke="#FFFFFF"></path><path d="M831 342L803 266L762 306Z" fill="#fbfbfb" stroke="#FFFFFF"></path><path d="M831 342L762 306L744 357Z" fill="#fafafa" stroke="#FFFFFF"></path><path d="M705 0L656 0L656 58Z" fill="#fefefe" stroke="#FFFFFF"></path><path d="M705 0L656 58L686 71Z" fill="#fdfdfd" stroke="#FFFFFF"></path><path d="M712 118L720 127L795 91Z" fill="#fdfdfd" stroke="#FFFFFF"></path><path d="M795 91L722 145L833 123Z" fill="#fafafa" stroke="#FFFFFF"></path><path d="M656 0L624 -18L587 0Z" fill="#fbfbfb" stroke="#FFFFFF"></path><path d="M588 -26L619 -43L535 -41Z" fill="#fbfbfb" stroke="#FFFFFF"></path><path d="M280 0L330 0L363 -6Z" fill="#fcfcfc" stroke="#FFFFFF"></path><path d="M363 -6L330 0L378 0Z" fill="#fefefe" stroke="#FFFFFF"></path><path d="M803 266L806 234L779 228Z" fill="#fefefe" stroke="#FFFFFF"></path><path d="M280 448L261 479L284 454Z" fill="#fafafa" stroke="#FFFFFF"></path><path d="M284 454L307 530L314 433Z" fill="#fcfcfc" stroke="#FFFFFF"></path><path d="M246 467L280 448L275 431Z" fill="#fdfdfd" stroke="#FFFFFF"></path><path d="M246 467L275 431L258 412Z" fill="#fbfbfb" stroke="#FFFFFF"></path><path d="M184 479L246 467L176 468Z" fill="#f9f9f9" stroke="#FFFFFF"></path><path d="M614 540L660 540L616 506Z" fill="#ffffff" stroke="#FFFFFF"></path><path d="M589 540L618 564L614 540Z" fill="#fdfdfd" stroke="#FFFFFF"></path><path d="M614 540L645 557L660 540Z" fill="#fdfdfd" stroke="#FFFFFF"></path><path d="M447 540L618 564L589 540Z" fill="#fafafa" stroke="#FFFFFF"></path><path d="M385 592L618 564L447 540Z" fill="#f9f9f9" stroke="#FFFFFF"></path><path d="M385 592L447 540L413 540Z" fill="#fdfdfd" stroke="#FFFFFF"></path><path d="M385 592L413 540L399 540Z" fill="#f9f9f9" stroke="#FFFFFF"></path><path d="M228 159L177 192L210 217Z" fill="#fdfdfd" stroke="#FFFFFF"></path><path d="M210 217L167 283L216 310Z" fill="#fcfcfc" stroke="#FFFFFF"></path><path d="M216 310L178 355L253 360Z" fill="#fafafa" stroke="#FFFFFF"></path><path d="M197 90L228 159L251 103Z" fill="#fefefe" stroke="#FFFFFF"></path><path d="M197 90L251 103L261 78Z" fill="#fdfdfd" stroke="#FFFFFF"></path><path d="M283 513L307 530L284 454Z" fill="#fcfcfc" stroke="#FFFFFF"></path><path d="M283 513L284 454L261 479Z" fill="#fafafa" stroke="#FFFFFF"></path><path d="M253 540L283 513L261 479Z" fill="#f9f9f9" stroke="#FFFFFF"></path><path d="M160 281L167 283L154 277Z" fill="#fdfdfd" stroke="#FFFFFF"></path><path d="M167 283L178 355L216 310Z" fill="#f9f9f9" stroke="#FFFFFF"></path><path d="M618 564L645 557L614 540Z" fill="#fcfcfc" stroke="#FFFFFF"></path><path d="M178 355L179 360L253 360Z" fill="#f9f9f9" stroke="#FFFFFF"></path><path d="M705 0L619 -43L656 0Z" fill="#fcfcfc" stroke="#FFFFFF"></path><path d="M656 0L619 -43L624 -18Z" fill="#fcfcfc" stroke="#FFFFFF"></path><path d="M624 -18L619 -43L588 -26Z" fill="#fafafa" stroke="#FFFFFF"></path><path d="M645 557L677 540L660 540Z" fill="#ffffff" stroke="#FFFFFF"></path><path d="M660 540L677 540L659 463Z" fill="#fafafa" stroke="#FFFFFF"></path><path d="M805 419L744 357L723 407Z" fill="#fefefe" stroke="#FFFFFF"></path><path d="M167 283L160 281L178 355Z" fill="#fefefe" stroke="#FFFFFF"></path><path d="M178 355L91 320L179 360Z" fill="#fafafa" stroke="#FFFFFF"></path><path d="M154 277L167 283L210 217Z" fill="#fefefe" stroke="#FFFFFF"></path><path d="M782 25L705 0L720 51Z" fill="#fdfdfd" stroke="#FFFFFF"></path><path d="M720 51L705 0L686 71Z" fill="#fbfbfb" stroke="#FFFFFF"></path><path d="M330 0L280 0L282 45Z" fill="#fafafa" stroke="#FFFFFF"></path><path d="M198 0L197 90L261 78Z" fill="#fefefe" stroke="#FFFFFF"></path><path d="M105 -44L280 0L363 -6Z" fill="#f9f9f9" stroke="#FFFFFF"></path><path d="M177 192L154 277L210 217Z" fill="#fbfbfb" stroke="#FFFFFF"></path><path d="M160 281L91 320L178 355Z" fill="#fbfbfb" stroke="#FFFFFF"></path><path d="M198 0L261 78L282 45Z" fill="#f9f9f9" stroke="#FFFFFF"></path><path d="M177 192L119 211L154 277Z" fill="#fcfcfc" stroke="#FFFFFF"></path><path d="M805 419L723 407L716 435Z" fill="#fcfcfc" stroke="#FFFFFF"></path><path d="M803 266L851 241L806 234Z" fill="#f9f9f9" stroke="#FFFFFF"></path><path d="M223 577L385 592L307 530Z" fill="#fdfdfd" stroke="#FFFFFF"></path><path d="M307 530L385 592L369 540Z" fill="#f9f9f9" stroke="#FFFFFF"></path><path d="M369 540L385 592L399 540Z" fill="#fafafa" stroke="#FFFFFF"></path><path d="M833 123L722 145L779 228Z" fill="#f9f9f9" stroke="#FFFFFF"></path><path d="M856 190L779 228L806 234Z" fill="#fdfdfd" stroke="#FFFFFF"></path><path d="M797 489L805 419L716 435Z" fill="#fefefe" stroke="#FFFFFF"></path><path d="M831 342L851 241L803 266Z" fill="#fdfdfd" stroke="#FFFFFF"></path><path d="M197 90L144 182L177 192Z" fill="#fafafa" stroke="#FFFFFF"></path><path d="M851 241L852 203L806 234Z" fill="#fafafa" stroke="#FFFFFF"></path><path d="M805 419L846 363L831 342Z" fill="#fcfcfc" stroke="#FFFFFF"></path><path d="M831 342L944 309L851 241Z" fill="#fafafa" stroke="#FFFFFF"></path><path d="M856 190L833 123L779 228Z" fill="#fafafa" stroke="#FFFFFF"></path><path d="M795 91L782 25L720 51Z" fill="#fefefe" stroke="#FFFFFF"></path><path d="M239 540L253 540L261 479Z" fill="#fafafa" stroke="#FFFFFF"></path><path d="M283 513L253 540L307 530Z" fill="#fcfcfc" stroke="#FFFFFF"></path><path d="M239 540L261 479L208 517Z" fill="#fafafa" stroke="#FFFFFF"></path><path d="M862 216L856 190L852 203Z" fill="#fefefe" stroke="#FFFFFF"></path><path d="M852 203L856 190L806 234Z" fill="#fefefe" stroke="#FFFFFF"></path><path d="M862 216L852 203L851 241Z" fill="#fbfbfb" stroke="#FFFFFF"></path><path d="M895 202L862 216L851 241Z" fill="#fefefe" stroke="#FFFFFF"></path><path d="M154 277L103 287L160 281Z" fill="#ffffff" stroke="#FFFFFF"></path><path d="M208 517L261 479L246 467Z" fill="#fefefe" stroke="#FFFFFF"></path><path d="M119 211L123 273L154 277Z" fill="#fefefe" stroke="#FFFFFF"></path><path d="M860 20L782 25L795 91Z" fill="#fdfdfd" stroke="#FFFFFF"></path><path d="M705 0L751 -36L619 -43Z" fill="#fbfbfb" stroke="#FFFFFF"></path><path d="M928 87L832 100L833 123Z" fill="#fdfdfd" stroke="#FFFFFF"></path><path d="M833 123L832 100L795 91Z" fill="#fafafa" stroke="#FFFFFF"></path><path d="M246 467L258 412L176 468Z" fill="#fdfdfd" stroke="#FFFFFF"></path><path d="M253 540L223 577L307 530Z" fill="#fefefe" stroke="#FFFFFF"></path><path d="M806 540L797 489L677 540Z" fill="#fbfbfb" stroke="#FFFFFF"></path><path d="M677 540L797 489L716 435Z" fill="#fbfbfb" stroke="#FFFFFF"></path><path d="M805 419L856 378L846 363Z" fill="#f9f9f9" stroke="#FFFFFF"></path><path d="M176 468L258 412L179 360Z" fill="#fbfbfb" stroke="#FFFFFF"></path><path d="M55 365L176 468L179 360Z" fill="#fafafa" stroke="#FFFFFF"></path><path d="M797 489L828 443L805 419Z" fill="#fefefe" stroke="#FFFFFF"></path><path d="M868 428L856 378L805 419Z" fill="#fbfbfb" stroke="#FFFFFF"></path><path d="M846 363L894 377L831 342Z" fill="#fbfbfb" stroke="#FFFFFF"></path><path d="M68 181L119 211L144 182Z" fill="#fdfdfd" stroke="#FFFFFF"></path><path d="M144 182L119 211L177 192Z" fill="#ffffff" stroke="#FFFFFF"></path><path d="M223 540L208 517L175 540Z" fill="#fbfbfb" stroke="#FFFFFF"></path><path d="M184 479L208 517L246 467Z" fill="#fdfdfd" stroke="#FFFFFF"></path><path d="M208 517L223 540L239 540Z" fill="#fbfbfb" stroke="#FFFFFF"></path><path d="M239 540L223 577L253 540Z" fill="#fbfbfb" stroke="#FFFFFF"></path><path d="M223 577L223 540L175 540Z" fill="#f9f9f9" stroke="#FFFFFF"></path><path d="M119 211L103 287L123 273Z" fill="#ffffff" stroke="#FFFFFF"></path><path d="M123 273L103 287L154 277Z" fill="#ffffff" stroke="#FFFFFF"></path><path d="M793 0L751 -36L782 25Z" fill="#fbfbfb" stroke="#FFFFFF"></path><path d="M782 25L751 -36L705 0Z" fill="#fbfbfb" stroke="#FFFFFF"></path><path d="M105 -44L198 0L280 0Z" fill="#ffffff" stroke="#FFFFFF"></path><path d="M280 0L198 0L282 45Z" fill="#fafafa" stroke="#FFFFFF"></path><path d="M72 146L68 181L144 182Z" fill="#fefefe" stroke="#FFFFFF"></path><path d="M800 0L793 0L782 25Z" fill="#fafafa" stroke="#FFFFFF"></path><path d="M843 0L800 0L782 25Z" fill="#ffffff" stroke="#FFFFFF"></path><path d="M793 0L818 -51L751 -36Z" fill="#f9f9f9" stroke="#FFFFFF"></path><path d="M856 190L895 202L833 123Z" fill="#fefefe" stroke="#FFFFFF"></path><path d="M860 20L843 0L782 25Z" fill="#fefefe" stroke="#FFFFFF"></path><path d="M862 216L895 202L856 190Z" fill="#fdfdfd" stroke="#FFFFFF"></path><path d="M960 275L895 202L851 241Z" fill="#fbfbfb" stroke="#FFFFFF"></path><path d="M47 343L91 320L32 307Z" fill="#fdfdfd" stroke="#FFFFFF"></path><path d="M103 287L91 320L160 281Z" fill="#fafafa" stroke="#FFFFFF"></path><path d="M828 443L868 428L805 419Z" fill="#fafafa" stroke="#FFFFFF"></path><path d="M856 378L894 377L846 363Z" fill="#fdfdfd" stroke="#FFFFFF"></path><path d="M858 540L868 428L828 443Z" fill="#fcfcfc" stroke="#FFFFFF"></path><path d="M198 0L159 25L197 90Z" fill="#fafafa" stroke="#FFFFFF"></path><path d="M119 211L46 189L103 287Z" fill="#fcfcfc" stroke="#FFFFFF"></path><path d="M175 540L208 517L184 479Z" fill="#fbfbfb" stroke="#FFFFFF"></path><path d="M223 540L223 577L239 540Z" fill="#fdfdfd" stroke="#FFFFFF"></path><path d="M175 540L184 479L164 540Z" fill="#fbfbfb" stroke="#FFFFFF"></path><path d="M868 428L894 377L856 378Z" fill="#fdfdfd" stroke="#FFFFFF"></path><path d="M645 557L806 540L677 540Z" fill="#fbfbfb" stroke="#FFFFFF"></path><path d="M797 489L858 540L828 443Z" fill="#fcfcfc" stroke="#FFFFFF"></path><path d="M871 561L806 540L645 557Z" fill="#f9f9f9" stroke="#FFFFFF"></path><path d="M164 540L184 479L161 540Z" fill="#fbfbfb" stroke="#FFFFFF"></path><path d="M161 540L184 479L176 468Z" fill="#fdfdfd" stroke="#FFFFFF"></path><path d="M175 540L164 540L223 577Z" fill="#fdfdfd" stroke="#FFFFFF"></path><path d="M198 0L145 9L159 25Z" fill="#fbfbfb" stroke="#FFFFFF"></path><path d="M72 146L144 182L66 114Z" fill="#fafafa" stroke="#FFFFFF"></path><path d="M45 481L161 540L176 468Z" fill="#fdfdfd" stroke="#FFFFFF"></path><path d="M164 540L161 540L223 577Z" fill="#fdfdfd" stroke="#FFFFFF"></path><path d="M944 372L913 379L919 450Z" fill="#fafafa" stroke="#FFFFFF"></path><path d="M868 428L913 379L894 377Z" fill="#fafafa" stroke="#FFFFFF"></path><path d="M894 377L944 309L831 342Z" fill="#ffffff" stroke="#FFFFFF"></path><path d="M144 182L197 90L66 114Z" fill="#fafafa" stroke="#FFFFFF"></path><path d="M860 20L795 91L832 100Z" fill="#fefefe" stroke="#FFFFFF"></path><path d="M800 0L818 -51L793 0Z" fill="#fefefe" stroke="#FFFFFF"></path><path d="M66 114L197 90L159 25Z" fill="#fbfbfb" stroke="#FFFFFF"></path><path d="M928 70L860 20L832 100Z" fill="#fafafa" stroke="#FFFFFF"></path><path d="M47 343L55 365L91 320Z" fill="#fcfcfc" stroke="#FFFFFF"></path><path d="M91 320L55 365L179 360Z" fill="#fdfdfd" stroke="#FFFFFF"></path><path d="M960 -8L818 -51L843 0Z" fill="#fafafa" stroke="#FFFFFF"></path><path d="M843 0L818 -51L800 0Z" fill="#f9f9f9" stroke="#FFFFFF"></path><path d="M751 -36L818 -51L619 -43Z" fill="#fafafa" stroke="#FFFFFF"></path><path d="M619 -43L105 -44L535 -41Z" fill="#fefefe" stroke="#FFFFFF"></path><path d="M913 379L944 309L894 377Z" fill="#fefefe" stroke="#FFFFFF"></path><path d="M895 202L928 87L833 123Z" fill="#fbfbfb" stroke="#FFFFFF"></path><path d="M67 42L66 114L159 25Z" fill="#fdfdfd" stroke="#FFFFFF"></path><path d="M32 171L46 189L68 181Z" fill="#fdfdfd" stroke="#FFFFFF"></path><path d="M32 307L91 320L103 287Z" fill="#f9f9f9" stroke="#FFFFFF"></path><path d="M46 189L119 211L68 181Z" fill="#fefefe" stroke="#FFFFFF"></path><path d="M32 171L68 181L72 146Z" fill="#f9f9f9" stroke="#FFFFFF"></path><path d="M871 561L858 540L806 540Z" fill="#fdfdfd" stroke="#FFFFFF"></path><path d="M806 540L858 540L797 489Z" fill="#fbfbfb" stroke="#FFFFFF"></path><path d="M913 379L944 372L944 309Z" fill="#fefefe" stroke="#FFFFFF"></path><path d="M879 540L858 540L871 561Z" fill="#fbfbfb" stroke="#FFFFFF"></path><path d="M145 9L119 0L159 25Z" fill="#ffffff" stroke="#FFFFFF"></path><path d="M105 -44L119 0L145 9Z" fill="#fafafa" stroke="#FFFFFF"></path><path d="M107 -7L119 0L105 -44Z" fill="#fefefe" stroke="#FFFFFF"></path><path d="M919 450L913 379L868 428Z" fill="#fbfbfb" stroke="#FFFFFF"></path><path d="M879 540L919 450L868 428Z" fill="#fefefe" stroke="#FFFFFF"></path><path d="M7 215L32 307L103 287Z" fill="#fdfdfd" stroke="#FFFFFF"></path><path d="M0 401L28 418L55 365Z" fill="#f9f9f9" stroke="#FFFFFF"></path><path d="M960 303L960 275L944 309Z" fill="#fafafa" stroke="#FFFFFF"></path><path d="M944 309L960 275L851 241Z" fill="#ffffff" stroke="#FFFFFF"></path><path d="M960 318L960 303L944 309Z" fill="#fbfbfb" stroke="#FFFFFF"></path><path d="M960 150L928 87L895 202Z" fill="#fdfdfd" stroke="#FFFFFF"></path><path d="M860 20L960 -8L843 0Z" fill="#f9f9f9" stroke="#FFFFFF"></path><path d="M960 331L960 318L944 309Z" fill="#fafafa" stroke="#FFFFFF"></path><path d="M960 461L960 331L944 372Z" fill="#fefefe" stroke="#FFFFFF"></path><path d="M944 372L960 331L944 309Z" fill="#fdfdfd" stroke="#FFFFFF"></path><path d="M960 275L960 191L895 202Z" fill="#fdfdfd" stroke="#FFFFFF"></path><path d="M29 125L32 171L72 146Z" fill="#fefefe" stroke="#FFFFFF"></path><path d="M46 189L7 215L103 287Z" fill="#fdfdfd" stroke="#FFFFFF"></path><path d="M29 125L72 146L66 114Z" fill="#fefefe" stroke="#FFFFFF"></path><path d="M105 -44L145 9L198 0Z" fill="#fbfbfb" stroke="#FFFFFF"></path><path d="M119 0L67 42L159 25Z" fill="#fafafa" stroke="#FFFFFF"></path><path d="M871 561L645 557L618 564Z" fill="#fbfbfb" stroke="#FFFFFF"></path><path d="M858 540L879 540L868 428Z" fill="#fbfbfb" stroke="#FFFFFF"></path><path d="M960 45L928 70L928 87Z" fill="#ffffff" stroke="#FFFFFF"></path><path d="M928 87L928 70L832 100Z" fill="#fdfdfd" stroke="#FFFFFF"></path><path d="M989 205L964 175L960 191Z" fill="#fafafa" stroke="#FFFFFF"></path><path d="M960 191L964 175L895 202Z" fill="#f9f9f9" stroke="#FFFFFF"></path><path d="M989 205L960 191L960 275Z" fill="#fafafa" stroke="#FFFFFF"></path><path d="M989 205L960 275L960 303Z" fill="#fdfdfd" stroke="#FFFFFF"></path><path d="M989 205L960 303L960 318Z" fill="#fdfdfd" stroke="#FFFFFF"></path><path d="M964 175L960 150L895 202Z" fill="#fbfbfb" stroke="#FFFFFF"></path><path d="M960 587L871 561L618 564Z" fill="#fdfdfd" stroke="#FFFFFF"></path><path d="M962 515L954 460L919 450Z" fill="#fefefe" stroke="#FFFFFF"></path><path d="M107 -7L67 42L119 0Z" fill="#fcfcfc" stroke="#FFFFFF"></path><path d="M0 80L29 125L66 114Z" fill="#ffffff" stroke="#FFFFFF"></path><path d="M32 171L7 215L46 189Z" fill="#f9f9f9" stroke="#FFFFFF"></path><path d="M1006 65L960 120L960 150Z" fill="#fdfdfd" stroke="#FFFFFF"></path><path d="M960 150L960 120L928 87Z" fill="#fafafa" stroke="#FFFFFF"></path><path d="M0 164L7 215L32 171Z" fill="#fdfdfd" stroke="#FFFFFF"></path><path d="M55 365L28 418L176 468Z" fill="#f9f9f9" stroke="#FFFFFF"></path><path d="M0 351L55 365L47 343Z" fill="#fefefe" stroke="#FFFFFF"></path><path d="M0 351L47 343L32 307Z" fill="#fbfbfb" stroke="#FFFFFF"></path><path d="M107 -7L44 0L67 42Z" fill="#fdfdfd" stroke="#FFFFFF"></path><path d="M0 148L32 171L29 125Z" fill="#fdfdfd" stroke="#FFFFFF"></path><path d="M535 -41L105 -44L363 -6Z" fill="#fcfcfc" stroke="#FFFFFF"></path><path d="M818 -51L105 -44L619 -43Z" fill="#ffffff" stroke="#FFFFFF"></path><path d="M960 331L989 205L960 318Z" fill="#fbfbfb" stroke="#FFFFFF"></path><path d="M964 175L989 205L960 150Z" fill="#fafafa" stroke="#FFFFFF"></path><path d="M28 418L45 481L176 468Z" fill="#fbfbfb" stroke="#FFFFFF"></path><path d="M161 540L0 581L223 577Z" fill="#fefefe" stroke="#FFFFFF"></path><path d="M919 450L954 460L944 372Z" fill="#fefefe" stroke="#FFFFFF"></path><path d="M960 331L960 461L989 205Z" fill="#fcfcfc" stroke="#FFFFFF"></path><path d="M960 461L954 460L962 515Z" fill="#fafafa" stroke="#FFFFFF"></path><path d="M-45 295L0 351L32 307Z" fill="#fdfdfd" stroke="#FFFFFF"></path><path d="M28 418L27 452L45 481Z" fill="#fafafa" stroke="#FFFFFF"></path><path d="M0 412L27 452L28 418Z" fill="#fafafa" stroke="#FFFFFF"></path><path d="M0 148L0 164L32 171Z" fill="#fefefe" stroke="#FFFFFF"></path><path d="M7 215L-45 295L32 307Z" fill="#fefefe" stroke="#FFFFFF"></path><path d="M0 148L29 125L0 136Z" fill="#fbfbfb" stroke="#FFFFFF"></path><path d="M945 540L919 450L879 540Z" fill="#fcfcfc" stroke="#FFFFFF"></path><path d="M954 460L960 461L944 372Z" fill="#fbfbfb" stroke="#FFFFFF"></path><path d="M0 136L29 125L0 118Z" fill="#fafafa" stroke="#FFFFFF"></path><path d="M0 118L29 125L0 80Z" fill="#fdfdfd" stroke="#FFFFFF"></path><path d="M-5 391L0 401L55 365Z" fill="#f9f9f9" stroke="#FFFFFF"></path><path d="M0 401L0 404L28 418Z" fill="#fefefe" stroke="#FFFFFF"></path><path d="M1006 65L960 45L960 120Z" fill="#ffffff" stroke="#FFFFFF"></path><path d="M960 120L960 45L928 87Z" fill="#fbfbfb" stroke="#FFFFFF"></path><path d="M928 70L960 0L860 20Z" fill="#ffffff" stroke="#FFFFFF"></path><path d="M0 351L-5 391L55 365Z" fill="#fcfcfc" stroke="#FFFFFF"></path><path d="M0 401L-5 391L0 404Z" fill="#fbfbfb" stroke="#FFFFFF"></path><path d="M-45 295L-5 391L0 351Z" fill="#f9f9f9" stroke="#FFFFFF"></path><path d="M-45 295L7 215L0 164Z" fill="#fbfbfb" stroke="#FFFFFF"></path><path d="M-45 295L0 164L0 148Z" fill="#f9f9f9" stroke="#FFFFFF"></path><path d="M0 80L66 114L67 42Z" fill="#fdfdfd" stroke="#FFFFFF"></path><path d="M-50 0L-45 295L0 148Z" fill="#ffffff" stroke="#FFFFFF"></path><path d="M-5 391L0 412L0 404Z" fill="#fcfcfc" stroke="#FFFFFF"></path><path d="M0 404L0 412L28 418Z" fill="#fafafa" stroke="#FFFFFF"></path><path d="M27 452L11 476L45 481Z" fill="#ffffff" stroke="#FFFFFF"></path><path d="M105 -44L44 0L107 -7Z" fill="#f9f9f9" stroke="#FFFFFF"></path><path d="M9 32L0 80L67 42Z" fill="#fcfcfc" stroke="#FFFFFF"></path><path d="M-50 0L0 148L0 136Z" fill="#fefefe" stroke="#FFFFFF"></path><path d="M0 528L11 476L0 412Z" fill="#fefefe" stroke="#FFFFFF"></path><path d="M0 412L11 476L27 452Z" fill="#fbfbfb" stroke="#FFFFFF"></path><path d="M45 481L17 540L161 540Z" fill="#fefefe" stroke="#FFFFFF"></path><path d="M871 561L945 540L879 540Z" fill="#fefefe" stroke="#FFFFFF"></path><path d="M945 540L962 515L919 450Z" fill="#ffffff" stroke="#FFFFFF"></path><path d="M960 461L962 515L989 205Z" fill="#fbfbfb" stroke="#FFFFFF"></path><path d="M105 -44L34 0L44 0Z" fill="#fbfbfb" stroke="#FFFFFF"></path><path d="M44 0L9 32L67 42Z" fill="#fafafa" stroke="#FFFFFF"></path><path d="M960 45L960 0L928 70Z" fill="#fdfdfd" stroke="#FFFFFF"></path><path d="M1006 65L960 0L960 45Z" fill="#ffffff" stroke="#FFFFFF"></path><path d="M34 0L9 32L44 0Z" fill="#fcfcfc" stroke="#FFFFFF"></path><path d="M945 540L960 535L962 515Z" fill="#fbfbfb" stroke="#FFFFFF"></path><path d="M1006 65L960 -8L960 0Z" fill="#fcfcfc" stroke="#FFFFFF"></path><path d="M960 0L960 -8L860 20Z" fill="#fafafa" stroke="#FFFFFF"></path><path d="M-50 0L0 136L0 118Z" fill="#fafafa" stroke="#FFFFFF"></path><path d="M-5 391L0 528L0 412Z" fill="#fafafa" stroke="#FFFFFF"></path><path d="M-50 0L0 118L0 80Z" fill="#fafafa" stroke="#FFFFFF"></path><path d="M960 587L960 540L945 540Z" fill="#fefefe" stroke="#FFFFFF"></path><path d="M945 540L960 540L960 535Z" fill="#fbfbfb" stroke="#FFFFFF"></path><path d="M960 535L960 540L962 515Z" fill="#fefefe" stroke="#FFFFFF"></path><path d="M960 587L1006 65L989 205Z" fill="#fdfdfd" stroke="#FFFFFF"></path><path d="M960 587L989 205L962 515Z" fill="#fefefe" stroke="#FFFFFF"></path><path d="M989 205L1006 65L960 150Z" fill="#fefefe" stroke="#FFFFFF"></path><path d="M0 528L45 481L11 476Z" fill="#fdfdfd" stroke="#FFFFFF"></path><path d="M0 528L17 540L45 481Z" fill="#fefefe" stroke="#FFFFFF"></path><path d="M34 0L0 0L9 32Z" fill="#f9f9f9" stroke="#FFFFFF"></path><path d="M9 32L-50 0L0 80Z" fill="#fdfdfd" stroke="#FFFFFF"></path><path d="M105 -44L0 0L34 0Z" fill="#fdfdfd" stroke="#FFFFFF"></path><path d="M-45 295L0 528L-5 391Z" fill="#fbfbfb" stroke="#FFFFFF"></path><path d="M-45 295L0 540L0 528Z" fill="#fbfbfb" stroke="#FFFFFF"></path><path d="M0 528L0 540L17 540Z" fill="#fdfdfd" stroke="#FFFFFF"></path><path d="M17 540L0 581L161 540Z" fill="#ffffff" stroke="#FFFFFF"></path><path d="M871 561L960 587L945 540Z" fill="#fdfdfd" stroke="#FFFFFF"></path><path d="M960 540L960 587L962 515Z" fill="#fafafa" stroke="#FFFFFF"></path><path d="M385 592L960 587L618 564Z" fill="#fbfbfb" stroke="#FFFFFF"></path><path d="M-45 295L0 581L0 540Z" fill="#fdfdfd" stroke="#FFFFFF"></path><path d="M0 540L0 581L17 540Z" fill="#fdfdfd" stroke="#FFFFFF"></path><path d="M223 577L0 581L385 592Z" fill="#ffffff" stroke="#FFFFFF"></path><path d="M105 -44L-50 0L0 0Z" fill="#fdfdfd" stroke="#FFFFFF"></path><path d="M0 0L-50 0L9 32Z" fill="#fdfdfd" stroke="#FFFFFF"></path></g></svg>