<svg id="visual" viewBox="0 0 960 540" width="960" height="540" xmlns="http://www.w3.org/2000/svg" xmlns:xlink="http://www.w3.org/1999/xlink" version="1.1"><rect x="0" y="0" width="960" height="540" fill="#ffffff"></rect><defs><linearGradient id="grad1_0" x1="43.8%" y1="0%" x2="100%" y2="100%"><stop offset="14.444444444444446%" stop-color="#ffffff" stop-opacity="1"></stop><stop offset="85.55555555555554%" stop-color="#ffffff" stop-opacity="1"></stop></linearGradient></defs><defs><linearGradient id="grad2_0" x1="0%" y1="0%" x2="56.3%" y2="100%"><stop offset="14.444444444444446%" stop-color="#ffffff" stop-opacity="1"></stop><stop offset="85.55555555555554%" stop-color="#ffffff" stop-opacity="1"></stop></linearGradient></defs><g transform="translate(960, 0)"><path d="M0 297C-63.3 295.8 -126.6 294.6 -148.5 257.2C-170.4 219.9 -151 146.4 -168.9 97.5C-186.7 48.6 -241.9 24.3 -297 0L0 0Z" fill="#387EFF"></path></g><g transform="translate(0, 540)"><path d="M0 -297C60.3 -294 120.6 -291.1 148.5 -257.2C176.4 -223.3 172 -158.5 191.4 -110.5C210.8 -62.5 253.9 -31.2 297 0L0 0Z" fill="#387EFF"></path></g></svg>