<svg id="visual" viewBox="0 0 900 600" width="900" height="600" xmlns="http://www.w3.org/2000/svg" xmlns:xlink="http://www.w3.org/1999/xlink" version="1.1"><rect x="0" y="0" width="900" height="600" fill="#ffffff"></rect><defs><linearGradient id="grad1_0" x1="33.3%" y1="0%" x2="100%" y2="100%"><stop offset="20%" stop-color="#387eff" stop-opacity="1"></stop><stop offset="80%" stop-color="#387eff" stop-opacity="1"></stop></linearGradient></defs><defs><linearGradient id="grad1_1" x1="33.3%" y1="0%" x2="100%" y2="100%"><stop offset="20%" stop-color="#387eff" stop-opacity="1"></stop><stop offset="80%" stop-color="#7696ff" stop-opacity="1"></stop></linearGradient></defs><defs><linearGradient id="grad1_2" x1="33.3%" y1="0%" x2="100%" y2="100%"><stop offset="20%" stop-color="#9fafff" stop-opacity="1"></stop><stop offset="80%" stop-color="#7696ff" stop-opacity="1"></stop></linearGradient></defs><defs><linearGradient id="grad1_3" x1="33.3%" y1="0%" x2="100%" y2="100%"><stop offset="20%" stop-color="#9fafff" stop-opacity="1"></stop><stop offset="80%" stop-color="#c1c9ff" stop-opacity="1"></stop></linearGradient></defs><defs><linearGradient id="grad1_4" x1="33.3%" y1="0%" x2="100%" y2="100%"><stop offset="20%" stop-color="#e1e4ff" stop-opacity="1"></stop><stop offset="80%" stop-color="#c1c9ff" stop-opacity="1"></stop></linearGradient></defs><defs><linearGradient id="grad1_5" x1="33.3%" y1="0%" x2="100%" y2="100%"><stop offset="20%" stop-color="#e1e4ff" stop-opacity="1"></stop><stop offset="80%" stop-color="#ffffff" stop-opacity="1"></stop></linearGradient></defs><defs><linearGradient id="grad2_0" x1="0%" y1="0%" x2="66.7%" y2="100%"><stop offset="20%" stop-color="#387eff" stop-opacity="1"></stop><stop offset="80%" stop-color="#387eff" stop-opacity="1"></stop></linearGradient></defs><defs><linearGradient id="grad2_1" x1="0%" y1="0%" x2="66.7%" y2="100%"><stop offset="20%" stop-color="#7696ff" stop-opacity="1"></stop><stop offset="80%" stop-color="#387eff" stop-opacity="1"></stop></linearGradient></defs><defs><linearGradient id="grad2_2" x1="0%" y1="0%" x2="66.7%" y2="100%"><stop offset="20%" stop-color="#7696ff" stop-opacity="1"></stop><stop offset="80%" stop-color="#9fafff" stop-opacity="1"></stop></linearGradient></defs><defs><linearGradient id="grad2_3" x1="0%" y1="0%" x2="66.7%" y2="100%"><stop offset="20%" stop-color="#c1c9ff" stop-opacity="1"></stop><stop offset="80%" stop-color="#9fafff" stop-opacity="1"></stop></linearGradient></defs><defs><linearGradient id="grad2_4" x1="0%" y1="0%" x2="66.7%" y2="100%"><stop offset="20%" stop-color="#c1c9ff" stop-opacity="1"></stop><stop offset="80%" stop-color="#e1e4ff" stop-opacity="1"></stop></linearGradient></defs><defs><linearGradient id="grad2_5" x1="0%" y1="0%" x2="66.7%" y2="100%"><stop offset="20%" stop-color="#ffffff" stop-opacity="1"></stop><stop offset="80%" stop-color="#e1e4ff" stop-opacity="1"></stop></linearGradient></defs><g transform="translate(900, 0)"><path d="M0 459.7C-19.6 369.3 -39.3 278.8 -113.7 274.4C-188 270 -317.2 351.5 -325.1 325.1C-332.9 298.6 -219.5 164 -221.7 91.8C-224 19.7 -341.8 9.8 -459.7 0L0 0Z" fill="#f0f1ff"></path><path d="M0 383.1C-16.4 307.7 -32.7 232.4 -94.7 228.7C-156.7 225 -264.3 293 -270.9 270.9C-277.4 248.8 -182.9 136.7 -184.8 76.5C-186.6 16.4 -284.9 8.2 -383.1 0L0 0Z" fill="#d1d6ff"></path><path d="M0 306.5C-13.1 246.2 -26.2 185.9 -75.8 182.9C-125.4 180 -211.5 234.4 -216.7 216.7C-222 199.1 -146.3 109.4 -147.8 61.2C-149.3 13.1 -227.9 6.6 -306.5 0L0 0Z" fill="#b0bcff"></path><path d="M0 229.9C-9.8 184.6 -19.6 139.4 -56.8 137.2C-94 135 -158.6 175.8 -162.5 162.5C-166.5 149.3 -109.8 82 -110.9 45.9C-112 9.8 -170.9 4.9 -229.9 0L0 0Z" fill="#8ba2ff"></path><path d="M0 153.2C-6.5 123.1 -13.1 92.9 -37.9 91.5C-62.7 90 -105.7 117.2 -108.4 108.4C-111 99.5 -73.2 54.7 -73.9 30.6C-74.7 6.6 -113.9 3.3 -153.2 0L0 0Z" fill="#5c8aff"></path><path d="M0 76.6C-3.3 61.5 -6.5 46.5 -18.9 45.7C-31.3 45 -52.9 58.6 -54.2 54.2C-55.5 49.8 -36.6 27.3 -37 15.3C-37.3 3.3 -57 1.6 -76.6 0L0 0Z" fill="#387eff"></path></g><g transform="translate(0, 600)"><path d="M0 -459.7C53.2 -442.2 106.4 -424.7 168.8 -407.4C231.1 -390.1 302.6 -373 325.1 -325.1C347.6 -277.1 321.1 -198.2 335.4 -138.9C349.6 -79.6 404.7 -39.8 459.7 0L0 0Z" fill="#f0f1ff"></path><path d="M0 -383.1C44.3 -368.5 88.7 -353.9 140.6 -339.5C192.6 -325.1 252.1 -310.9 270.9 -270.9C289.6 -230.9 267.6 -165.2 279.5 -115.8C291.4 -66.3 337.2 -33.2 383.1 0L0 0Z" fill="#d1d6ff"></path><path d="M0 -306.5C35.5 -294.8 71 -283.2 112.5 -271.6C154.1 -260.1 201.7 -248.7 216.7 -216.7C231.7 -184.7 214.1 -132.2 223.6 -92.6C233.1 -53.1 269.8 -26.5 306.5 0L0 0Z" fill="#b0bcff"></path><path d="M0 -229.9C26.6 -221.1 53.2 -212.4 84.4 -203.7C115.6 -195.1 151.3 -186.5 162.5 -162.5C173.8 -138.5 160.5 -99.1 167.7 -69.5C174.8 -39.8 202.3 -19.9 229.9 0L0 0Z" fill="#8ba2ff"></path><path d="M0 -153.2C17.7 -147.4 35.5 -141.6 56.3 -135.8C77 -130 100.9 -124.3 108.4 -108.4C115.9 -92.4 107 -66.1 111.8 -46.3C116.5 -26.5 134.9 -13.3 153.2 0L0 0Z" fill="#5c8aff"></path><path d="M0 -76.6C8.9 -73.7 17.7 -70.8 28.1 -67.9C38.5 -65 50.4 -62.2 54.2 -54.2C57.9 -46.2 53.5 -33 55.9 -23.2C58.3 -13.3 67.4 -6.6 76.6 0L0 0Z" fill="#387eff"></path></g></svg>