<svg id="visual" viewBox="0 0 900 675" width="900" height="675" xmlns="http://www.w3.org/2000/svg" xmlns:xlink="http://www.w3.org/1999/xlink" version="1.1"><rect x="0" y="0" width="900" height="675" fill="#262626"></rect><defs><linearGradient id="grad1_0" x1="25%" y1="100%" x2="100%" y2="0%"><stop offset="23.333333333333336%" stop-color="#262626" stop-opacity="1"></stop><stop offset="76.66666666666666%" stop-color="#262626" stop-opacity="1"></stop></linearGradient></defs><defs><linearGradient id="grad2_0" x1="0%" y1="100%" x2="75%" y2="0%"><stop offset="23.333333333333336%" stop-color="#262626" stop-opacity="1"></stop><stop offset="76.66666666666666%" stop-color="#262626" stop-opacity="1"></stop></linearGradient></defs><g transform="translate(900, 675)"><path d="M-362 0C-360.8 -70.3 -359.5 -140.5 -326.5 -188.5C-293.5 -236.5 -228.7 -262.2 -169 -292.7C-109.3 -323.2 -54.6 -358.5 0 -393.7L0 0Z" fill="#1d273b"></path></g><g transform="translate(0, 0)"><path d="M393.8 0C370 61 346.3 122 314.4 181.5C282.4 241 242.3 299.1 188.5 326.5C134.7 353.8 67.4 350.4 0 347L0 0Z" fill="#1d273b"></path></g></svg>