<svg id="visual" viewBox="0 0 900 600" width="900" height="600" xmlns="http://www.w3.org/2000/svg" xmlns:xlink="http://www.w3.org/1999/xlink" version="1.1"><g><g transform="translate(169 84)"><path d="M0 -112L72 -85.8L110.3 -19.5L97 56L38.3 105.3L-38.3 105.3L-97 56L-110.3 -19.5L-72 -85.8Z" stroke="#ffffff" fill="none" stroke-width="2"></path></g><g transform="translate(206 521)"><path d="M0 -54L34.7 -41.4L53.2 -9.4L46.8 27L18.5 50.7L-18.5 50.7L-46.8 27L-53.2 -9.4L-34.7 -41.4Z" stroke="#ffffff" fill="none" stroke-width="2"></path></g><g transform="translate(422 390)"><path d="M0 -92L59.1 -70.5L90.6 -16L79.7 46L31.5 86.5L-31.5 86.5L-79.7 46L-90.6 -16L-59.1 -70.5Z" stroke="#ffffff" fill="none" stroke-width="2"></path></g><g transform="translate(796 298)"><path d="M0 -58L37.3 -44.4L57.1 -10.1L50.2 29L19.8 54.5L-19.8 54.5L-50.2 29L-57.1 -10.1L-37.3 -44.4Z" stroke="#ffffff" fill="none" stroke-width="2"></path></g><g transform="translate(435 59)"><path d="M0 -46L29.6 -35.2L45.3 -8L39.8 23L15.7 43.2L-15.7 43.2L-39.8 23L-45.3 -8L-29.6 -35.2Z" stroke="#ffffff" fill="none" stroke-width="2"></path></g><g transform="translate(805 555)"><path d="M0 -69L44.4 -52.9L68 -12L59.8 34.5L23.6 64.8L-23.6 64.8L-59.8 34.5L-68 -12L-44.4 -52.9Z" stroke="#ffffff" fill="none" stroke-width="2"></path></g><g transform="translate(549 592)"><path d="M0 -46L29.6 -35.2L45.3 -8L39.8 23L15.7 43.2L-15.7 43.2L-39.8 23L-45.3 -8L-29.6 -35.2Z" stroke="#ffffff" fill="none" stroke-width="2"></path></g><g transform="translate(702 75)"><path d="M0 -99L63.6 -75.8L97.5 -17.2L85.7 49.5L33.9 93L-33.9 93L-85.7 49.5L-97.5 -17.2L-63.6 -75.8Z" stroke="#ffffff" fill="none" stroke-width="2"></path></g><g transform="translate(74 326)"><path d="M0 -90L57.9 -68.9L88.6 -15.6L77.9 45L30.8 84.6L-30.8 84.6L-77.9 45L-88.6 -15.6L-57.9 -68.9Z" stroke="#ffffff" fill="none" stroke-width="2"></path></g></g></svg>