<svg id="visual" viewBox="0 0 900 600" width="900" height="600" xmlns="http://www.w3.org/2000/svg" xmlns:xlink="http://www.w3.org/1999/xlink" version="1.1"><path d="M0 216L113 216L113 209L225 209L225 209L338 209L338 199L450 199L450 200L563 200L563 205L675 205L675 200L788 200L788 217L900 217L900 240L900 0L900 0L788 0L788 0L675 0L675 0L563 0L563 0L450 0L450 0L338 0L338 0L225 0L225 0L113 0L113 0L0 0Z" fill="#ffffff"></path><path d="M0 151L113 151L113 167L225 167L225 174L338 174L338 166L450 166L450 123L563 123L563 146L675 146L675 166L788 166L788 143L900 143L900 155L900 0L900 0L788 0L788 0L675 0L675 0L563 0L563 0L450 0L450 0L338 0L338 0L225 0L225 0L113 0L113 0L0 0Z" fill="#f6f8ff"></path><path d="M0 64L113 64L113 52L225 52L225 53L338 53L338 92L450 92L450 49L563 49L563 96L675 96L675 89L788 89L788 83L900 83L900 75L900 0L900 0L788 0L788 0L675 0L675 0L563 0L563 0L450 0L450 0L338 0L338 0L225 0L225 0L113 0L113 0L0 0Z" fill="#ecf2ff"></path></svg>