<svg id="visual" viewBox="0 0 960 540" width="960" height="540" xmlns="http://www.w3.org/2000/svg" xmlns:xlink="http://www.w3.org/1999/xlink" version="1.1"><rect x="0" y="0" width="960" height="540" fill="#262626"></rect><path d="M0 418L22.8 416.3C45.7 414.7 91.3 411.3 137 408C182.7 404.7 228.3 401.3 274 399.8C319.7 398.3 365.3 398.7 411.2 400.5C457 402.3 503 405.7 548.8 407.5C594.7 409.3 640.3 409.7 686 408.5C731.7 407.3 777.3 404.7 823 404.3C868.7 404 914.3 406 937.2 407L960 408L960 541L937.2 541C914.3 541 868.7 541 823 541C777.3 541 731.7 541 686 541C640.3 541 594.7 541 548.8 541C503 541 457 541 411.2 541C365.3 541 319.7 541 274 541C228.3 541 182.7 541 137 541C91.3 541 45.7 541 22.8 541L0 541Z" fill="#262626"></path><path d="M0 430L22.8 432.3C45.7 434.7 91.3 439.3 137 439C182.7 438.7 228.3 433.3 274 431.7C319.7 430 365.3 432 411.2 435.3C457 438.7 503 443.3 548.8 442.7C594.7 442 640.3 436 686 436C731.7 436 777.3 442 823 445.3C868.7 448.7 914.3 449.3 937.2 449.7L960 450L960 541L937.2 541C914.3 541 868.7 541 823 541C777.3 541 731.7 541 686 541C640.3 541 594.7 541 548.8 541C503 541 457 541 411.2 541C365.3 541 319.7 541 274 541C228.3 541 182.7 541 137 541C91.3 541 45.7 541 22.8 541L0 541Z" fill="#25262b"></path><path d="M0 473L22.8 471.8C45.7 470.7 91.3 468.3 137 468.7C182.7 469 228.3 472 274 470C319.7 468 365.3 461 411.2 460.8C457 460.7 503 467.3 548.8 470.7C594.7 474 640.3 474 686 472.2C731.7 470.3 777.3 466.7 823 465.5C868.7 464.3 914.3 465.7 937.2 466.3L960 467L960 541L937.2 541C914.3 541 868.7 541 823 541C777.3 541 731.7 541 686 541C640.3 541 594.7 541 548.8 541C503 541 457 541 411.2 541C365.3 541 319.7 541 274 541C228.3 541 182.7 541 137 541C91.3 541 45.7 541 22.8 541L0 541Z" fill="#232630"></path><path d="M0 492L22.8 492.8C45.7 493.7 91.3 495.3 137 496.7C182.7 498 228.3 499 274 496.2C319.7 493.3 365.3 486.7 411.2 483.5C457 480.3 503 480.7 548.8 483C594.7 485.3 640.3 489.7 686 491.5C731.7 493.3 777.3 492.7 823 489.2C868.7 485.7 914.3 479.3 937.2 476.2L960 473L960 541L937.2 541C914.3 541 868.7 541 823 541C777.3 541 731.7 541 686 541C640.3 541 594.7 541 548.8 541C503 541 457 541 411.2 541C365.3 541 319.7 541 274 541C228.3 541 182.7 541 137 541C91.3 541 45.7 541 22.8 541L0 541Z" fill="#212635"></path><path d="M0 523L22.8 519.3C45.7 515.7 91.3 508.3 137 505.5C182.7 502.7 228.3 504.3 274 508.2C319.7 512 365.3 518 411.2 517.3C457 516.7 503 509.3 548.8 509C594.7 508.7 640.3 515.3 686 519C731.7 522.7 777.3 523.3 823 521.3C868.7 519.3 914.3 514.7 937.2 512.3L960 510L960 541L937.2 541C914.3 541 868.7 541 823 541C777.3 541 731.7 541 686 541C640.3 541 594.7 541 548.8 541C503 541 457 541 411.2 541C365.3 541 319.7 541 274 541C228.3 541 182.7 541 137 541C91.3 541 45.7 541 22.8 541L0 541Z" fill="#1d273b"></path></svg>