<svg id="visual" viewBox="0 0 960 540" width="960" height="540" xmlns="http://www.w3.org/2000/svg" xmlns:xlink="http://www.w3.org/1999/xlink" version="1.1"><rect x="0" y="0" width="960" height="540" fill="#ffffff"></rect><path d="M0 276L14.5 274.2C29 272.3 58 268.7 87.2 264C116.3 259.3 145.7 253.7 174.8 256.3C204 259 233 270 262 270C291 270 320 259 349 258C378 257 407 266 436.2 267.3C465.3 268.7 494.7 262.3 523.8 259.5C553 256.7 582 257.3 611 256.5C640 255.7 669 253.3 698 252.7C727 252 756 253 785.2 258.2C814.3 263.3 843.7 272.7 872.8 272.7C902 272.7 931 263.3 945.5 258.7L960 254L960 541L945.5 541C931 541 902 541 872.8 541C843.7 541 814.3 541 785.2 541C756 541 727 541 698 541C669 541 640 541 611 541C582 541 553 541 523.8 541C494.7 541 465.3 541 436.2 541C407 541 378 541 349 541C320 541 291 541 262 541C233 541 204 541 174.8 541C145.7 541 116.3 541 87.2 541C58 541 29 541 14.5 541L0 541Z" fill="#ffffff"></path><path d="M0 299L14.5 302.7C29 306.3 58 313.7 87.2 316.7C116.3 319.7 145.7 318.3 174.8 316C204 313.7 233 310.3 262 309.8C291 309.3 320 311.7 349 315.2C378 318.7 407 323.3 436.2 319.3C465.3 315.3 494.7 302.7 523.8 297.2C553 291.7 582 293.3 611 295C640 296.7 669 298.3 698 299.3C727 300.3 756 300.7 785.2 301.7C814.3 302.7 843.7 304.3 872.8 308.7C902 313 931 320 945.5 323.5L960 327L960 541L945.5 541C931 541 902 541 872.8 541C843.7 541 814.3 541 785.2 541C756 541 727 541 698 541C669 541 640 541 611 541C582 541 553 541 523.8 541C494.7 541 465.3 541 436.2 541C407 541 378 541 349 541C320 541 291 541 262 541C233 541 204 541 174.8 541C145.7 541 116.3 541 87.2 541C58 541 29 541 14.5 541L0 541Z" fill="#e1e4ff"></path><path d="M0 351L14.5 348C29 345 58 339 87.2 335.7C116.3 332.3 145.7 331.7 174.8 337.2C204 342.7 233 354.3 262 356.2C291 358 320 350 349 349.3C378 348.7 407 355.3 436.2 354.2C465.3 353 494.7 344 523.8 343.5C553 343 582 351 611 356.2C640 361.3 669 363.7 698 362.5C727 361.3 756 356.7 785.2 356.8C814.3 357 843.7 362 872.8 362.7C902 363.3 931 359.7 945.5 357.8L960 356L960 541L945.5 541C931 541 902 541 872.8 541C843.7 541 814.3 541 785.2 541C756 541 727 541 698 541C669 541 640 541 611 541C582 541 553 541 523.8 541C494.7 541 465.3 541 436.2 541C407 541 378 541 349 541C320 541 291 541 262 541C233 541 204 541 174.8 541C145.7 541 116.3 541 87.2 541C58 541 29 541 14.5 541L0 541Z" fill="#c1c9ff"></path><path d="M0 397L14.5 397C29 397 58 397 87.2 397.2C116.3 397.3 145.7 397.7 174.8 402C204 406.3 233 414.7 262 414.3C291 414 320 405 349 400C378 395 407 394 436.2 397.8C465.3 401.7 494.7 410.3 523.8 411.2C553 412 582 405 611 403.2C640 401.3 669 404.7 698 403.8C727 403 756 398 785.2 398.3C814.3 398.7 843.7 404.3 872.8 404.7C902 405 931 400 945.5 397.5L960 395L960 541L945.5 541C931 541 902 541 872.8 541C843.7 541 814.3 541 785.2 541C756 541 727 541 698 541C669 541 640 541 611 541C582 541 553 541 523.8 541C494.7 541 465.3 541 436.2 541C407 541 378 541 349 541C320 541 291 541 262 541C233 541 204 541 174.8 541C145.7 541 116.3 541 87.2 541C58 541 29 541 14.5 541L0 541Z" fill="#9eafff"></path><path d="M0 446L14.5 447.7C29 449.3 58 452.7 87.2 450.8C116.3 449 145.7 442 174.8 443C204 444 233 453 262 456.8C291 460.7 320 459.3 349 457.5C378 455.7 407 453.3 436.2 447.8C465.3 442.3 494.7 433.7 523.8 432.8C553 432 582 439 611 441.5C640 444 669 442 698 441.5C727 441 756 442 785.2 439.8C814.3 437.7 843.7 432.3 872.8 432.8C902 433.3 931 439.7 945.5 442.8L960 446L960 541L945.5 541C931 541 902 541 872.8 541C843.7 541 814.3 541 785.2 541C756 541 727 541 698 541C669 541 640 541 611 541C582 541 553 541 523.8 541C494.7 541 465.3 541 436.2 541C407 541 378 541 349 541C320 541 291 541 262 541C233 541 204 541 174.8 541C145.7 541 116.3 541 87.2 541C58 541 29 541 14.5 541L0 541Z" fill="#7596ff"></path><path d="M0 482L14.5 484.7C29 487.3 58 492.7 87.2 495.8C116.3 499 145.7 500 174.8 496C204 492 233 483 262 480C291 477 320 480 349 485.2C378 490.3 407 497.7 436.2 503C465.3 508.3 494.7 511.7 523.8 512C553 512.3 582 509.7 611 503C640 496.3 669 485.7 698 483.8C727 482 756 489 785.2 489.5C814.3 490 843.7 484 872.8 482.7C902 481.3 931 484.7 945.5 486.3L960 488L960 541L945.5 541C931 541 902 541 872.8 541C843.7 541 814.3 541 785.2 541C756 541 727 541 698 541C669 541 640 541 611 541C582 541 553 541 523.8 541C494.7 541 465.3 541 436.2 541C407 541 378 541 349 541C320 541 291 541 262 541C233 541 204 541 174.8 541C145.7 541 116.3 541 87.2 541C58 541 29 541 14.5 541L0 541Z" fill="#387eff"></path></svg>