<svg id="visual" viewBox="0 0 900 675" width="900" height="675" xmlns="http://www.w3.org/2000/svg" xmlns:xlink="http://www.w3.org/1999/xlink" version="1.1"><rect x="0" y="0" width="900" height="675" fill="#262626"></rect><path d="M0 229L50 206.3C100 183.7 200 138.3 300 122.8C400 107.3 500 121.7 600 135.8C700 150 800 164 850 171L900 178L900 676L850 676C800 676 700 676 600 676C500 676 400 676 300 676C200 676 100 676 50 676L0 676Z" fill="#262626"></path><path d="M0 266L50 251.7C100 237.3 200 208.7 300 200.3C400 192 500 204 600 192.7C700 181.3 800 146.7 850 129.3L900 112L900 676L850 676C800 676 700 676 600 676C500 676 400 676 300 676C200 676 100 676 50 676L0 676Z" fill="#25262b"></path><path d="M0 229L50 234.5C100 240 200 251 300 265.5C400 280 500 298 600 309C700 320 800 324 850 326L900 328L900 676L850 676C800 676 700 676 600 676C500 676 400 676 300 676C200 676 100 676 50 676L0 676Z" fill="#24272f"></path><path d="M0 430L50 420.5C100 411 200 392 300 361.8C400 331.7 500 290.3 600 277.5C700 264.7 800 280.3 850 288.2L900 296L900 676L850 676C800 676 700 676 600 676C500 676 400 676 300 676C200 676 100 676 50 676L0 676Z" fill="#232734"></path><path d="M0 342L50 363.3C100 384.7 200 427.3 300 432.8C400 438.3 500 406.7 600 398.3C700 390 800 405 850 412.5L900 420L900 676L850 676C800 676 700 676 600 676C500 676 400 676 300 676C200 676 100 676 50 676L0 676Z" fill="#212738"></path><path d="M0 433L50 429C100 425 200 417 300 429.2C400 441.3 500 473.7 600 490C700 506.3 800 506.7 850 506.8L900 507L900 676L850 676C800 676 700 676 600 676C500 676 400 676 300 676C200 676 100 676 50 676L0 676Z" fill="#1f283d"></path><path d="M0 528L50 520.2C100 512.3 200 496.7 300 493.5C400 490.3 500 499.7 600 516.8C700 534 800 559 850 571.5L900 584L900 676L850 676C800 676 700 676 600 676C500 676 400 676 300 676C200 676 100 676 50 676L0 676Z" fill="#1d2841"></path><path d="M0 601L50 593C100 585 200 569 300 563C400 557 500 561 600 569.3C700 577.7 800 590.3 850 596.7L900 603L900 676L850 676C800 676 700 676 600 676C500 676 400 676 300 676C200 676 100 676 50 676L0 676Z" fill="#1a2946"></path></svg>