<svg id="visual" viewBox="0 0 900 450" width="900" height="450" xmlns="http://www.w3.org/2000/svg" xmlns:xlink="http://www.w3.org/1999/xlink" version="1.1"><rect x="0" y="0" width="900" height="450" fill="#262626"></rect><path d="M0 364L50 363.2C100 362.3 200 360.7 300 343.2C400 325.7 500 292.3 600 294.3C700 296.3 800 333.7 850 352.3L900 371L900 0L850 0C800 0 700 0 600 0C500 0 400 0 300 0C200 0 100 0 50 0L0 0Z" fill="#262626"></path><path d="M0 295L50 278.7C100 262.3 200 229.7 300 218.3C400 207 500 217 600 225.2C700 233.3 800 239.7 850 242.8L900 246L900 0L850 0C800 0 700 0 600 0C500 0 400 0 300 0C200 0 100 0 50 0L0 0Z" fill="#24262d"></path><path d="M0 117L50 127C100 137 200 157 300 167.8C400 178.7 500 180.3 600 183.8C700 187.3 800 192.7 850 195.3L900 198L900 0L850 0C800 0 700 0 600 0C500 0 400 0 300 0C200 0 100 0 50 0L0 0Z" fill="#212634"></path><path d="M0 90L50 98.8C100 107.7 200 125.3 300 124.7C400 124 500 105 600 96C700 87 800 88 850 88.5L900 89L900 0L850 0C800 0 700 0 600 0C500 0 400 0 300 0C200 0 100 0 50 0L0 0Z" fill="#1d273b"></path></svg>