<svg id="visual" viewBox="0 0 900 600" width="900" height="600" xmlns="http://www.w3.org/2000/svg" xmlns:xlink="http://www.w3.org/1999/xlink" version="1.1"><rect x="0" y="0" width="900" height="600" fill="#262626"></rect><path d="M0 203L50 183C100 163 200 123 300 109.3C400 95.7 500 108.3 600 121C700 133.7 800 146.3 850 152.7L900 159L900 601L850 601C800 601 700 601 600 601C500 601 400 601 300 601C200 601 100 601 50 601L0 601Z" fill="#262626"></path><path d="M0 236L50 223.3C100 210.7 200 185.3 300 178C400 170.7 500 181.3 600 171.3C700 161.3 800 130.7 850 115.3L900 100L900 601L850 601C800 601 700 601 600 601C500 601 400 601 300 601C200 601 100 601 50 601L0 601Z" fill="#25262b"></path><path d="M0 203L50 208C100 213 200 223 300 236C400 249 500 265 600 274.8C700 284.7 800 288.3 850 290.2L900 292L900 601L850 601C800 601 700 601 600 601C500 601 400 601 300 601C200 601 100 601 50 601L0 601Z" fill="#24272f"></path><path d="M0 382L50 373.5C100 365 200 348 300 321.2C400 294.3 500 257.7 600 246.3C700 235 800 249 850 256L900 263L900 601L850 601C800 601 700 601 600 601C500 601 400 601 300 601C200 601 100 601 50 601L0 601Z" fill="#232734"></path><path d="M0 304L50 323C100 342 200 380 300 384.8C400 389.7 500 361.3 600 354C700 346.7 800 360.3 850 367.2L900 374L900 601L850 601C800 601 700 601 600 601C500 601 400 601 300 601C200 601 100 601 50 601L0 601Z" fill="#212738"></path><path d="M0 385L50 381.3C100 377.7 200 370.3 300 381C400 391.7 500 420.3 600 434.8C700 449.3 800 449.7 850 449.8L900 450L900 601L850 601C800 601 700 601 600 601C500 601 400 601 300 601C200 601 100 601 50 601L0 601Z" fill="#1f283d"></path><path d="M0 469L50 462C100 455 200 441 300 438.2C400 435.3 500 443.7 600 459C700 474.3 800 496.7 850 507.8L900 519L900 601L850 601C800 601 700 601 600 601C500 601 400 601 300 601C200 601 100 601 50 601L0 601Z" fill="#1d2841"></path><path d="M0 534L50 526.8C100 519.7 200 505.3 300 500C400 494.7 500 498.3 600 505.8C700 513.3 800 524.7 850 530.3L900 536L900 601L850 601C800 601 700 601 600 601C500 601 400 601 300 601C200 601 100 601 50 601L0 601Z" fill="#1a2946"></path></svg>