<svg id="visual" viewBox="0 0 900 600" width="900" height="600" xmlns="http://www.w3.org/2000/svg" xmlns:xlink="http://www.w3.org/1999/xlink" version="1.1"><path d="M0 384L113 384L113 403L225 403L225 379L338 379L338 403L450 403L450 345L563 345L563 349L675 349L675 362L788 362L788 349L900 349L900 370L900 601L900 601L788 601L788 601L675 601L675 601L563 601L563 601L450 601L450 601L338 601L338 601L225 601L225 601L113 601L113 601L0 601Z" fill="#ffffff"></path><path d="M0 468L113 468L113 454L225 454L225 477L338 477L338 426L450 426L450 446L563 446L563 472L675 472L675 441L788 441L788 472L900 472L900 452L900 601L900 601L788 601L788 601L675 601L675 601L563 601L563 601L450 601L450 601L338 601L338 601L225 601L225 601L113 601L113 601L0 601Z" fill="#f6f8ff"></path><path d="M0 537L113 537L113 510L225 510L225 553L338 553L338 504L450 504L450 520L563 520L563 532L675 532L675 535L788 535L788 518L900 518L900 500L900 601L900 601L788 601L788 601L675 601L675 601L563 601L563 601L450 601L450 601L338 601L338 601L225 601L225 601L113 601L113 601L0 601Z" fill="#ecf2ff"></path></svg>