<svg id="visual" viewBox="0 0 900 450" width="900" height="450" xmlns="http://www.w3.org/2000/svg" xmlns:xlink="http://www.w3.org/1999/xlink" version="1.1"><rect x="0" y="0" width="900" height="450" fill="#262626"></rect><path d="M0 152L50 137C100 122 200 92 300 81.7C400 71.3 500 80.7 600 90.2C700 99.7 800 109.3 850 114.2L900 119L900 451L850 451C800 451 700 451 600 451C500 451 400 451 300 451C200 451 100 451 50 451L0 451Z" fill="#262626"></path><path d="M0 177L50 167.5C100 158 200 139 300 133.5C400 128 500 136 600 128.5C700 121 800 98 850 86.5L900 75L900 451L850 451C800 451 700 451 600 451C500 451 400 451 300 451C200 451 100 451 50 451L0 451Z" fill="#252629"></path><path d="M0 152L50 155.7C100 159.3 200 166.7 300 176.3C400 186 500 198 600 205.5C700 213 800 216 850 217.5L900 219L900 451L850 451C800 451 700 451 600 451C500 451 400 451 300 451C200 451 100 451 50 451L0 451Z" fill="#24262c"></path><path d="M0 287L50 280.5C100 274 200 261 300 240.8C400 220.7 500 193.3 600 184.8C700 176.3 800 186.7 850 191.8L900 197L900 451L850 451C800 451 700 451 600 451C500 451 400 451 300 451C200 451 100 451 50 451L0 451Z" fill="#24262f"></path><path d="M0 228L50 242.2C100 256.3 200 284.7 300 288.2C400 291.7 500 270.3 600 264.8C700 259.3 800 269.7 850 274.8L900 280L900 451L850 451C800 451 700 451 600 451C500 451 400 451 300 451C200 451 100 451 50 451L0 451Z" fill="#222632"></path><path d="M0 288L50 285.3C100 282.7 200 277.3 300 285.5C400 293.7 500 315.3 600 326.3C700 337.3 800 337.7 850 337.8L900 338L900 451L850 451C800 451 700 451 600 451C500 451 400 451 300 451C200 451 100 451 50 451L0 451Z" fill="#212635"></path><path d="M0 352L50 346.7C100 341.3 200 330.7 300 328.5C400 326.3 500 332.7 600 344.2C700 355.7 800 372.3 850 380.7L900 389L900 451L850 451C800 451 700 451 600 451C500 451 400 451 300 451C200 451 100 451 50 451L0 451Z" fill="#1f2738"></path><path d="M0 400L50 394.7C100 389.3 200 378.7 300 374.7C400 370.7 500 373.3 600 379C700 384.7 800 393.3 850 397.7L900 402L900 451L850 451C800 451 700 451 600 451C500 451 400 451 300 451C200 451 100 451 50 451L0 451Z" fill="#1d273b"></path></svg>