<svg id="visual" viewBox="0 0 960 540" width="960" height="540" xmlns="http://www.w3.org/2000/svg" xmlns:xlink="http://www.w3.org/1999/xlink" version="1.1"><rect x="0" y="0" width="960" height="540" fill="#ffffff"></rect><path d="M0 191L16 192.2C32 193.3 64 195.7 96 196.3C128 197 160 196 192 193.5C224 191 256 187 288 183.2C320 179.3 352 175.7 384 177C416 178.3 448 184.7 480 186.5C512 188.3 544 185.7 576 189.2C608 192.7 640 202.3 672 204.3C704 206.3 736 200.7 768 199.3C800 198 832 201 864 198C896 195 928 186 944 181.5L960 177L960 541L944 541C928 541 896 541 864 541C832 541 800 541 768 541C736 541 704 541 672 541C640 541 608 541 576 541C544 541 512 541 480 541C448 541 416 541 384 541C352 541 320 541 288 541C256 541 224 541 192 541C160 541 128 541 96 541C64 541 32 541 16 541L0 541Z" fill="#ffffff"></path><path d="M0 228L16 230.5C32 233 64 238 96 237.8C128 237.7 160 232.3 192 233.3C224 234.3 256 241.7 288 247C320 252.3 352 255.7 384 255.2C416 254.7 448 250.3 480 245.5C512 240.7 544 235.3 576 237C608 238.7 640 247.3 672 253C704 258.7 736 261.3 768 257.3C800 253.3 832 242.7 864 241.5C896 240.3 928 248.7 944 252.8L960 257L960 541L944 541C928 541 896 541 864 541C832 541 800 541 768 541C736 541 704 541 672 541C640 541 608 541 576 541C544 541 512 541 480 541C448 541 416 541 384 541C352 541 320 541 288 541C256 541 224 541 192 541C160 541 128 541 96 541C64 541 32 541 16 541L0 541Z" fill="#e6e8ff"></path><path d="M0 302L16 297.7C32 293.3 64 284.7 96 283.5C128 282.3 160 288.7 192 287.7C224 286.7 256 278.3 288 279.2C320 280 352 290 384 291.8C416 293.7 448 287.3 480 289.3C512 291.3 544 301.7 576 302.8C608 304 640 296 672 295.5C704 295 736 302 768 300.7C800 299.3 832 289.7 864 282.8C896 276 928 272 944 270L960 268L960 541L944 541C928 541 896 541 864 541C832 541 800 541 768 541C736 541 704 541 672 541C640 541 608 541 576 541C544 541 512 541 480 541C448 541 416 541 384 541C352 541 320 541 288 541C256 541 224 541 192 541C160 541 128 541 96 541C64 541 32 541 16 541L0 541Z" fill="#ccd2ff"></path><path d="M0 358L16 357C32 356 64 354 96 350.3C128 346.7 160 341.3 192 337.2C224 333 256 330 288 332.7C320 335.3 352 343.7 384 342.5C416 341.3 448 330.7 480 330C512 329.3 544 338.7 576 343.8C608 349 640 350 672 346.3C704 342.7 736 334.3 768 329.2C800 324 832 322 864 325.5C896 329 928 338 944 342.5L960 347L960 541L944 541C928 541 896 541 864 541C832 541 800 541 768 541C736 541 704 541 672 541C640 541 608 541 576 541C544 541 512 541 480 541C448 541 416 541 384 541C352 541 320 541 288 541C256 541 224 541 192 541C160 541 128 541 96 541C64 541 32 541 16 541L0 541Z" fill="#b0bcff"></path><path d="M0 398L16 399C32 400 64 402 96 399.8C128 397.7 160 391.3 192 390.3C224 389.3 256 393.7 288 391.7C320 389.7 352 381.3 384 377.5C416 373.7 448 374.3 480 380C512 385.7 544 396.3 576 396.2C608 396 640 385 672 383.7C704 382.3 736 390.7 768 391.5C800 392.3 832 385.7 864 381.2C896 376.7 928 374.3 944 373.2L960 372L960 541L944 541C928 541 896 541 864 541C832 541 800 541 768 541C736 541 704 541 672 541C640 541 608 541 576 541C544 541 512 541 480 541C448 541 416 541 384 541C352 541 320 541 288 541C256 541 224 541 192 541C160 541 128 541 96 541C64 541 32 541 16 541L0 541Z" fill="#91a7ff"></path><path d="M0 454L16 450.8C32 447.7 64 441.3 96 439.5C128 437.7 160 440.3 192 438.5C224 436.7 256 430.3 288 429.3C320 428.3 352 432.7 384 437.5C416 442.3 448 447.7 480 444.8C512 442 544 431 576 426.2C608 421.3 640 422.7 672 426.5C704 430.3 736 436.7 768 439.2C800 441.7 832 440.3 864 441.3C896 442.3 928 445.7 944 447.3L960 449L960 541L944 541C928 541 896 541 864 541C832 541 800 541 768 541C736 541 704 541 672 541C640 541 608 541 576 541C544 541 512 541 480 541C448 541 416 541 384 541C352 541 320 541 288 541C256 541 224 541 192 541C160 541 128 541 96 541C64 541 32 541 16 541L0 541Z" fill="#6d92ff"></path><path d="M0 487L16 484.2C32 481.3 64 475.7 96 476.7C128 477.7 160 485.3 192 485.8C224 486.3 256 479.7 288 478C320 476.3 352 479.7 384 481.3C416 483 448 483 480 481C512 479 544 475 576 472.7C608 470.3 640 469.7 672 473.2C704 476.7 736 484.3 768 485.8C800 487.3 832 482.7 864 478.8C896 475 928 472 944 470.5L960 469L960 541L944 541C928 541 896 541 864 541C832 541 800 541 768 541C736 541 704 541 672 541C640 541 608 541 576 541C544 541 512 541 480 541C448 541 416 541 384 541C352 541 320 541 288 541C256 541 224 541 192 541C160 541 128 541 96 541C64 541 32 541 16 541L0 541Z" fill="#387eff"></path></svg>