<svg id="visual" viewBox="0 0 960 540" width="960" height="540" xmlns="http://www.w3.org/2000/svg" xmlns:xlink="http://www.w3.org/1999/xlink" version="1.1"><rect x="0" y="0" width="960" height="540" fill="#2d2d2d"></rect><path d="M0 298L80 301.3C160 304.7 320 311.3 480 313.2C640 315 800 312 880 310.5L960 309L960 541L880 541C800 541 640 541 480 541C320 541 160 541 80 541L0 541Z" fill="#2d2d2d"></path><path d="M0 83L80 85.8C160 88.7 320 94.3 480 91.3C640 88.3 800 76.7 880 70.8L960 65L960 541L880 541C800 541 640 541 480 541C320 541 160 541 80 541L0 541Z" fill="#2d2e32"></path><path d="M0 125L80 149.2C160 173.3 320 221.7 480 260.3C640 299 800 328 880 342.5L960 357L960 541L880 541C800 541 640 541 480 541C320 541 160 541 80 541L0 541Z" fill="#2e2f36"></path><path d="M0 390L80 351.5C160 313 320 236 480 195.3C640 154.7 800 150.3 880 148.2L960 146L960 541L880 541C800 541 640 541 480 541C320 541 160 541 80 541L0 541Z" fill="#2e313b"></path><path d="M0 344L80 350.2C160 356.3 320 368.7 480 378.3C640 388 800 395 880 398.5L960 402L960 541L880 541C800 541 640 541 480 541C320 541 160 541 80 541L0 541Z" fill="#2d3240"></path><path d="M0 340L80 330.7C160 321.3 320 302.7 480 302.7C640 302.7 800 321.3 880 330.7L960 340L960 541L880 541C800 541 640 541 480 541C320 541 160 541 80 541L0 541Z" fill="#2d3345"></path><path d="M0 378L80 390.2C160 402.3 320 426.7 480 429.8C640 433 800 415 880 406L960 397L960 541L880 541C800 541 640 541 480 541C320 541 160 541 80 541L0 541Z" fill="#2c344a"></path><path d="M0 355L80 365.3C160 375.7 320 396.3 480 402.7C640 409 800 401 880 397L960 393L960 541L880 541C800 541 640 541 480 541C320 541 160 541 80 541L0 541Z" fill="#2c364f"></path><path d="M0 448L80 445.8C160 443.7 320 439.3 480 444.3C640 449.3 800 463.7 880 470.8L960 478L960 541L880 541C800 541 640 541 480 541C320 541 160 541 80 541L0 541Z" fill="#2a3754"></path><path d="M0 425L80 438.5C160 452 320 479 480 477C640 475 800 444 880 428.5L960 413L960 541L880 541C800 541 640 541 480 541C320 541 160 541 80 541L0 541Z" fill="#29395a"></path><path d="M0 530L80 525.7C160 521.3 320 512.7 480 513.3C640 514 800 524 880 529L960 534L960 541L880 541C800 541 640 541 480 541C320 541 160 541 80 541L0 541Z" fill="#273a5f"></path></svg>