<svg id="visual" viewBox="0 0 900 600" width="900" height="600" xmlns="http://www.w3.org/2000/svg" xmlns:xlink="http://www.w3.org/1999/xlink" version="1.1"><rect x="0" y="0" width="900" height="600" fill="#ffffff"></rect><path d="M0 276L113 276L113 257L225 257L225 243L338 243L338 271L450 271L450 208L563 208L563 223L675 223L675 209L788 209L788 227L900 227L900 284L900 601L900 601L788 601L788 601L675 601L675 601L563 601L563 601L450 601L450 601L338 601L338 601L225 601L225 601L113 601L113 601L0 601Z" fill="#ffffff"></path><path d="M0 323L113 323L113 383L225 383L225 395L338 395L338 381L450 381L450 384L563 384L563 338L675 338L675 323L788 323L788 328L900 328L900 367L900 601L900 601L788 601L788 601L675 601L675 601L563 601L563 601L450 601L450 601L338 601L338 601L225 601L225 601L113 601L113 601L0 601Z" fill="#f6f8ff"></path><path d="M0 492L113 492L113 436L225 436L225 490L338 490L338 506L450 506L450 527L563 527L563 482L675 482L675 448L788 448L788 436L900 436L900 523L900 601L900 601L788 601L788 601L675 601L675 601L563 601L563 601L450 601L450 601L338 601L338 601L225 601L225 601L113 601L113 601L0 601Z" fill="#ecf2ff"></path></svg>