<svg id="visual" viewBox="0 0 900 600" width="900" height="600" xmlns="http://www.w3.org/2000/svg" xmlns:xlink="http://www.w3.org/1999/xlink" version="1.1"><path d="M0 438L64 438L64 446L129 446L129 435L193 435L193 428L257 428L257 447L321 447L321 431L386 431L386 446L450 446L450 436L514 436L514 436L579 436L579 431L643 431L643 436L707 436L707 435L771 435L771 431L836 431L836 427L900 427L900 431L900 601L900 601L836 601L836 601L771 601L771 601L707 601L707 601L643 601L643 601L579 601L579 601L514 601L514 601L450 601L450 601L386 601L386 601L321 601L321 601L257 601L257 601L193 601L193 601L129 601L129 601L64 601L64 601L0 601Z" fill="#ffffff"></path><path d="M0 465L64 465L64 465L129 465L129 466L193 466L193 465L257 465L257 464L321 464L321 452L386 452L386 449L450 449L450 464L514 464L514 454L579 454L579 458L643 458L643 458L707 458L707 460L771 460L771 456L836 456L836 463L900 463L900 451L900 601L900 601L836 601L836 601L771 601L771 601L707 601L707 601L643 601L643 601L579 601L579 601L514 601L514 601L450 601L450 601L386 601L386 601L321 601L321 601L257 601L257 601L193 601L193 601L129 601L129 601L64 601L64 601L0 601Z" fill="#eceeff"></path><path d="M0 476L64 476L64 472L129 472L129 477L193 477L193 467L257 467L257 469L321 469L321 468L386 468L386 473L450 473L450 480L514 480L514 480L579 480L579 483L643 483L643 481L707 481L707 476L771 476L771 476L836 476L836 466L900 466L900 475L900 601L900 601L836 601L836 601L771 601L771 601L707 601L707 601L643 601L643 601L579 601L579 601L514 601L514 601L450 601L450 601L386 601L386 601L321 601L321 601L257 601L257 601L193 601L193 601L129 601L129 601L64 601L64 601L0 601Z" fill="#d9ddff"></path><path d="M0 498L64 498L64 486L129 486L129 496L193 496L193 498L257 498L257 483L321 483L321 501L386 501L386 500L450 500L450 502L514 502L514 484L579 484L579 499L643 499L643 488L707 488L707 490L771 490L771 491L836 491L836 494L900 494L900 500L900 601L900 601L836 601L836 601L771 601L771 601L707 601L707 601L643 601L643 601L579 601L579 601L514 601L514 601L450 601L450 601L386 601L386 601L321 601L321 601L257 601L257 601L193 601L193 601L129 601L129 601L64 601L64 601L0 601Z" fill="#c5ccff"></path><path d="M0 514L64 514L64 515L129 515L129 501L193 501L193 519L257 519L257 516L321 516L321 517L386 517L386 508L450 508L450 507L514 507L514 513L579 513L579 511L643 511L643 520L707 520L707 513L771 513L771 498L836 498L836 516L900 516L900 512L900 601L900 601L836 601L836 601L771 601L771 601L707 601L707 601L643 601L643 601L579 601L579 601L514 601L514 601L450 601L450 601L386 601L386 601L321 601L321 601L257 601L257 601L193 601L193 601L129 601L129 601L64 601L64 601L0 601Z" fill="#b0bcff"></path><path d="M0 520L64 520L64 517L129 517L129 522L193 522L193 518L257 518L257 534L321 534L321 528L386 528L386 531L450 531L450 536L514 536L514 523L579 523L579 516L643 516L643 537L707 537L707 536L771 536L771 535L836 535L836 516L900 516L900 533L900 601L900 601L836 601L836 601L771 601L771 601L707 601L707 601L643 601L643 601L579 601L579 601L514 601L514 601L450 601L450 601L386 601L386 601L321 601L321 601L257 601L257 601L193 601L193 601L129 601L129 601L64 601L64 601L0 601Z" fill="#99acff"></path><path d="M0 552L64 552L64 538L129 538L129 546L193 546L193 545L257 545L257 554L321 554L321 541L386 541L386 551L450 551L450 550L514 550L514 537L579 537L579 541L643 541L643 541L707 541L707 551L771 551L771 536L836 536L836 543L900 543L900 535L900 601L900 601L836 601L836 601L771 601L771 601L707 601L707 601L643 601L643 601L579 601L579 601L514 601L514 601L450 601L450 601L386 601L386 601L321 601L321 601L257 601L257 601L193 601L193 601L129 601L129 601L64 601L64 601L0 601Z" fill="#809cff"></path><path d="M0 553L64 553L64 571L129 571L129 562L193 562L193 559L257 559L257 555L321 555L321 553L386 553L386 563L450 563L450 562L514 562L514 553L579 553L579 564L643 564L643 573L707 573L707 569L771 569L771 564L836 564L836 567L900 567L900 568L900 601L900 601L836 601L836 601L771 601L771 601L707 601L707 601L643 601L643 601L579 601L579 601L514 601L514 601L450 601L450 601L386 601L386 601L321 601L321 601L257 601L257 601L193 601L193 601L129 601L129 601L64 601L64 601L0 601Z" fill="#638dff"></path><path d="M0 576L64 576L64 590L129 590L129 581L193 581L193 576L257 576L257 590L321 590L321 591L386 591L386 576L450 576L450 581L514 581L514 581L579 581L579 573L643 573L643 581L707 581L707 581L771 581L771 584L836 584L836 574L900 574L900 591L900 601L900 601L836 601L836 601L771 601L771 601L707 601L707 601L643 601L643 601L579 601L579 601L514 601L514 601L450 601L450 601L386 601L386 601L321 601L321 601L257 601L257 601L193 601L193 601L129 601L129 601L64 601L64 601L0 601Z" fill="#387eff"></path></svg>