<svg id="visual" viewBox="0 0 960 540" width="960" height="540" xmlns="http://www.w3.org/2000/svg" xmlns:xlink="http://www.w3.org/1999/xlink" version="1.1"><rect width="960" height="540" fill="#1d273b"></rect><g><g transform="translate(188 402)"><path d="M0 -89.8L70.2 -56L87.6 20L39 80.9L-39 80.9L-87.6 20L-70.2 -56Z" stroke="#262626" fill="none" stroke-width="2"></path></g><g transform="translate(690 442)"><path d="M0 -27L21.1 -16.8L26.3 6L11.7 24.3L-11.7 24.3L-26.3 6L-21.1 -16.8Z" stroke="#262626" fill="none" stroke-width="2"></path></g><g transform="translate(861 126)"><path d="M0 -38L29.7 -23.7L37 8.5L16.5 34.2L-16.5 34.2L-37 8.5L-29.7 -23.7Z" stroke="#262626" fill="none" stroke-width="2"></path></g><g transform="translate(426 255)"><path d="M0 -28L21.9 -17.5L27.3 6.2L12.1 25.2L-12.1 25.2L-27.3 6.2L-21.9 -17.5Z" stroke="#262626" fill="none" stroke-width="2"></path></g><g transform="translate(256 111)"><path d="M0 -34L26.6 -21.2L33.1 7.6L14.8 30.6L-14.8 30.6L-33.1 7.6L-26.6 -21.2Z" stroke="#262626" fill="none" stroke-width="2"></path></g><g transform="translate(653 164)"><path d="M0 -61L47.7 -38L59.5 13.6L26.5 55L-26.5 55L-59.5 13.6L-47.7 -38Z" stroke="#262626" fill="none" stroke-width="2"></path></g><g transform="translate(369 430)"><path d="M0 -20L15.6 -12.5L19.5 4.5L8.7 18L-8.7 18L-19.5 4.5L-15.6 -12.5Z" stroke="#262626" fill="none" stroke-width="2"></path></g><g transform="translate(870 352)"><path d="M0 -58L45.3 -36.2L56.5 12.9L25.2 52.3L-25.2 52.3L-56.5 12.9L-45.3 -36.2Z" stroke="#262626" fill="none" stroke-width="2"></path></g><g transform="translate(96 197)"><path d="M0 -68L53.2 -42.4L66.3 15.1L29.5 61.3L-29.5 61.3L-66.3 15.1L-53.2 -42.4Z" stroke="#262626" fill="none" stroke-width="2"></path></g></g></svg>