<svg id="visual" viewBox="0 0 960 540" width="960" height="540" xmlns="http://www.w3.org/2000/svg" xmlns:xlink="http://www.w3.org/1999/xlink" version="1.1"><rect width="960" height="540" fill="#1d273b"></rect><g><g transform="translate(205 136)"><path d="M0 -72.8L63.1 -36.4L63.1 36.4L0 72.8L-63.1 36.4L-63.1 -36.4Z" fill="none" stroke="#262626" stroke-width="1"></path></g><g transform="translate(416 271)"><path d="M0 -40L34.6 -20L34.6 20L0 40L-34.6 20L-34.6 -20Z" fill="none" stroke="#262626" stroke-width="1"></path></g><g transform="translate(688 420)"><path d="M0 -32L27.7 -16L27.7 16L0 32L-27.7 16L-27.7 -16Z" stroke="#262626" fill="none" stroke-width="1"></path></g><g transform="translate(518 455)"><path d="M0 -67L58 -33.5L58 33.5L0 67L-58 33.5L-58 -33.5Z" stroke="#262626" fill="none" stroke-width="1"></path></g><g transform="translate(553 182)"><path d="M0 -26L22.5 -13L22.5 13L0 26L-22.5 13L-22.5 -13Z" stroke="#262626" fill="none" stroke-width="1"></path></g><g transform="translate(876 173)"><path d="M0 -46L39.8 -23L39.8 23L0 46L-39.8 23L-39.8 -23Z" stroke="#262626" fill="none" stroke-width="1"></path></g><g transform="translate(694 251)"><path d="M0 -57L49.4 -28.5L49.4 28.5L0 57L-49.4 28.5L-49.4 -28.5Z" stroke="#262626" fill="none" stroke-width="1"></path></g><g transform="translate(841 340)"><path d="M0 -22L19.1 -11L19.1 11L0 22L-19.1 11L-19.1 -11Z" stroke="#262626" fill="none" stroke-width="1"></path></g><g transform="translate(294 370)"><path d="M0 -64L55.4 -32L55.4 32L0 64L-55.4 32L-55.4 -32Z" stroke="#262626" fill="none" stroke-width="1"></path></g><g transform="translate(87 436)"><path d="M0 -70L60.6 -35L60.6 35L0 70L-60.6 35L-60.6 -35Z" stroke="#262626" fill="none" stroke-width="1"></path></g><g transform="translate(106 286)"><path d="M0 -36L31.2 -18L31.2 18L0 36L-31.2 18L-31.2 -18Z" stroke="#262626" fill="none" stroke-width="1"></path></g><g transform="translate(689 80)"><path d="M0 -28L24.2 -14L24.2 14L0 28L-24.2 14L-24.2 -14Z" stroke="#262626" fill="none" stroke-width="1"></path></g><g transform="translate(363 95)"><path d="M0 -26L22.5 -13L22.5 13L0 26L-22.5 13L-22.5 -13Z" stroke="#262626" fill="none" stroke-width="1"></path></g></g></svg>