<svg id="visual" viewBox="0 0 960 540" width="960" height="540" xmlns="http://www.w3.org/2000/svg" xmlns:xlink="http://www.w3.org/1999/xlink" version="1.1"><rect width="960" height="540" fill="#262626"></rect><g><g transform="translate(781 243)"><path d="M0 -72.8L63.1 -36.4L63.1 36.4L0 72.8L-63.1 36.4L-63.1 -36.4Z" fill="none" stroke="#1d273b" stroke-width="2"></path></g><g transform="translate(275 335)"><path d="M0 -14L12.1 -7L12.1 7L0 14L-12.1 7L-12.1 -7Z" fill="none" stroke="#1d273b" stroke-width="2"></path></g><g transform="translate(329 198)"><path d="M0 -49L42.4 -24.5L42.4 24.5L0 49L-42.4 24.5L-42.4 -24.5Z" stroke="#1d273b" fill="none" stroke-width="2"></path></g><g transform="translate(571 146)"><path d="M0 -47L40.7 -23.5L40.7 23.5L0 47L-40.7 23.5L-40.7 -23.5Z" stroke="#1d273b" fill="none" stroke-width="2"></path></g><g transform="translate(74 257)"><path d="M0 -47L40.7 -23.5L40.7 23.5L0 47L-40.7 23.5L-40.7 -23.5Z" stroke="#1d273b" fill="none" stroke-width="2"></path></g><g transform="translate(571 355)"><path d="M0 -18L15.6 -9L15.6 9L0 18L-15.6 9L-15.6 -9Z" stroke="#1d273b" fill="none" stroke-width="2"></path></g><g transform="translate(719 411)"><path d="M0 -53L45.9 -26.5L45.9 26.5L0 53L-45.9 26.5L-45.9 -26.5Z" stroke="#1d273b" fill="none" stroke-width="2"></path></g><g transform="translate(129 102)"><path d="M0 -30L26 -15L26 15L0 30L-26 15L-26 -15Z" stroke="#1d273b" fill="none" stroke-width="2"></path></g><g transform="translate(400 454)"><path d="M0 -71L61.5 -35.5L61.5 35.5L0 71L-61.5 35.5L-61.5 -35.5Z" stroke="#1d273b" fill="none" stroke-width="2"></path></g><g transform="translate(108 465)"><path d="M0 -33L28.6 -16.5L28.6 16.5L0 33L-28.6 16.5L-28.6 -16.5Z" stroke="#1d273b" fill="none" stroke-width="2"></path></g><g transform="translate(843 90)"><path d="M0 -37L32 -18.5L32 18.5L0 37L-32 18.5L-32 -18.5Z" stroke="#1d273b" fill="none" stroke-width="2"></path></g><g transform="translate(431 75)"><path d="M0 -27L23.4 -13.5L23.4 13.5L0 27L-23.4 13.5L-23.4 -13.5Z" stroke="#1d273b" fill="none" stroke-width="2"></path></g><g transform="translate(879 466)"><path d="M0 -27L23.4 -13.5L23.4 13.5L0 27L-23.4 13.5L-23.4 -13.5Z" stroke="#1d273b" fill="none" stroke-width="2"></path></g></g></svg>