<svg id="visual" viewBox="0 0 960 540" width="960" height="540" xmlns="http://www.w3.org/2000/svg" xmlns:xlink="http://www.w3.org/1999/xlink" version="1.1"><path d="M0 514L14.5 510.8C29 507.7 58 501.3 87.2 500.5C116.3 499.7 145.7 504.3 174.8 505.7C204 507 233 505 262 505.2C291 505.3 320 507.7 349 507C378 506.3 407 502.7 436.2 501.7C465.3 500.7 494.7 502.3 523.8 507.2C553 512 582 520 611 518.3C640 516.7 669 505.3 698 502.8C727 500.3 756 506.7 785.2 509.5C814.3 512.3 843.7 511.7 872.8 514.5C902 517.3 931 523.7 945.5 526.8L960 530L960 541L945.5 541C931 541 902 541 872.8 541C843.7 541 814.3 541 785.2 541C756 541 727 541 698 541C669 541 640 541 611 541C582 541 553 541 523.8 541C494.7 541 465.3 541 436.2 541C407 541 378 541 349 541C320 541 291 541 262 541C233 541 204 541 174.8 541C145.7 541 116.3 541 87.2 541C58 541 29 541 14.5 541L0 541Z" fill="#ffffff" stroke-linecap="round" stroke-linejoin="miter"></path></svg>