<svg id="visual" viewBox="0 0 960 540" width="960" height="540" xmlns="http://www.w3.org/2000/svg" xmlns:xlink="http://www.w3.org/1999/xlink" version="1.1"><g><g transform="translate(580 255)"><path d="M0 -84.2L72.9 -42.1L72.9 42.1L0 84.2L-72.9 42.1L-72.9 -42.1Z" stroke="#1d273b" fill="none" stroke-width="2"></path></g><g transform="translate(371 437)"><path d="M0 -83L71.9 -41.5L71.9 41.5L0 83L-71.9 41.5L-71.9 -41.5Z" stroke="#1d273b" fill="none" stroke-width="2"></path></g><g transform="translate(5 99)"><path d="M0 -64L55.4 -32L55.4 32L0 64L-55.4 32L-55.4 -32Z" stroke="#1d273b" fill="none" stroke-width="2"></path></g><g transform="translate(575 471)"><path d="M0 -70L60.6 -35L60.6 35L0 70L-60.6 35L-60.6 -35Z" stroke="#1d273b" fill="none" stroke-width="2"></path></g><g transform="translate(346 57)"><path d="M0 -45L39 -22.5L39 22.5L0 45L-39 22.5L-39 -22.5Z" stroke="#1d273b" fill="none" stroke-width="2"></path></g><g transform="translate(857 303)"><path d="M0 -74L64.1 -37L64.1 37L0 74L-64.1 37L-64.1 -37Z" stroke="#1d273b" fill="none" stroke-width="2"></path></g><g transform="translate(268 266)"><path d="M0 -48L41.6 -24L41.6 24L0 48L-41.6 24L-41.6 -24Z" stroke="#1d273b" fill="none" stroke-width="2"></path></g><g transform="translate(856 72)"><path d="M0 -47L40.7 -23.5L40.7 23.5L0 47L-40.7 23.5L-40.7 -23.5Z" stroke="#1d273b" fill="none" stroke-width="2"></path></g><g transform="translate(39 308)"><path d="M0 -34L29.4 -17L29.4 17L0 34L-29.4 17L-29.4 -17Z" stroke="#1d273b" fill="none" stroke-width="2"></path></g><g transform="translate(136 502)"><path d="M0 -10L8.7 -5L8.7 5L0 10L-8.7 5L-8.7 -5Z" stroke="#1d273b" fill="none" stroke-width="2"></path></g><g transform="translate(793 504)"><path d="M0 -67L58 -33.5L58 33.5L0 67L-58 33.5L-58 -33.5Z" stroke="#1d273b" fill="none" stroke-width="2"></path></g><g transform="translate(678 97)"><path d="M0 -52L45 -26L45 26L0 52L-45 26L-45 -26Z" stroke="#1d273b" fill="none" stroke-width="2"></path></g><g transform="translate(175 119)"><path d="M0 -53L45.9 -26.5L45.9 26.5L0 53L-45.9 26.5L-45.9 -26.5Z" stroke="#1d273b" fill="none" stroke-width="2"></path></g></g></svg>