<svg id="visual" viewBox="0 0 960 540" width="960" height="540" xmlns="http://www.w3.org/2000/svg" xmlns:xlink="http://www.w3.org/1999/xlink" version="1.1"><g><g transform="translate(37 114)"><path d="M0 -109.8L95.1 -54.9L95.1 54.9L0 109.8L-95.1 54.9L-95.1 -54.9Z" fill="none" stroke="#262626" stroke-width="2"></path></g><g transform="translate(869 325)"><path d="M0 -39L33.8 -19.5L33.8 19.5L0 39L-33.8 19.5L-33.8 -19.5Z" fill="none" stroke="#262626" stroke-width="2"></path></g><g transform="translate(394 417)"><path d="M0 -86L74.5 -43L74.5 43L0 86L-74.5 43L-74.5 -43Z" fill="none" stroke="#262626" stroke-width="2"></path></g><g transform="translate(502 64)"><path d="M0 -34L29.4 -17L29.4 17L0 34L-29.4 17L-29.4 -17Z" fill="none" stroke="#262626" stroke-width="2"></path></g><g transform="translate(102 418)"><path d="M0 -45L39 -22.5L39 22.5L0 45L-39 22.5L-39 -22.5Z" fill="none" stroke="#262626" stroke-width="2"></path></g>
<g transform="translate(282 98)"><path d="M0 -45L39 -22.5L39 22.5L0 45L-39 22.5L-39 -22.5Z" fill="none" stroke="#262626" stroke-width="2"></path></g><g transform="translate(673 469)"><path d="M0 -73L63.2 -36.5L63.2 36.5L0 73L-63.2 36.5L-63.2 -36.5Z" fill="none" stroke="#262626" stroke-width="2"></path></g><g transform="translate(302 226)"><path d="M0 -27L23.4 -13.5L23.4 13.5L0 27L-23.4 13.5L-23.4 -13.5Z" stroke="#262626" fill="none" stroke-width="2"></path></g><g transform="translate(701 161)"><path d="M0 -92L79.7 -46L79.7 46L0 92L-79.7 46L-79.7 -46Z" stroke="#262626" fill="none" stroke-width="2"></path></g></g></svg>