<svg id="visual" viewBox="0 0 900 600" width="900" height="600" xmlns="http://www.w3.org/2000/svg" xmlns:xlink="http://www.w3.org/1999/xlink" version="1.1"><path d="M0 115L129 115L129 115L257 115L257 97L386 97L386 103L514 103L514 91L643 91L643 91L771 91L771 103L900 103L900 79L900 0L900 0L771 0L771 0L643 0L643 0L514 0L514 0L386 0L386 0L257 0L257 0L129 0L129 0L0 0Z" fill="#ffffff"></path><path d="M0 325L129 325L129 301L257 301L257 289L386 289L386 277L514 277L514 289L643 289L643 265L771 265L771 289L900 289L900 301L900 77L900 101L771 101L771 89L643 89L643 89L514 89L514 101L386 101L386 95L257 95L257 113L129 113L129 113L0 113Z" fill="#f9faff"></path><path d="M0 427L129 427L129 409L257 409L257 427L386 427L386 391L514 391L514 415L643 415L643 385L771 385L771 397L900 397L900 409L900 299L900 287L771 287L771 263L643 263L643 287L514 287L514 275L386 275L386 287L257 287L257 299L129 299L129 323L0 323Z" fill="#f3f6ff"></path><path d="M0 601L129 601L129 601L257 601L257 601L386 601L386 601L514 601L514 601L643 601L643 601L771 601L771 601L900 601L900 601L900 407L900 395L771 395L771 383L643 383L643 413L514 413L514 389L386 389L386 425L257 425L257 407L129 407L129 425L0 425Z" fill="#ecf2ff"></path></svg>