<svg id="visual" viewBox="0 0 900 600" width="900" height="600" xmlns="http://www.w3.org/2000/svg" xmlns:xlink="http://www.w3.org/1999/xlink" version="1.1"><path d="M0 139L129 121L257 109L386 139L514 97L643 97L771 133L900 133L900 0L771 0L643 0L514 0L386 0L257 0L129 0L0 0Z" fill="#ecf2ff"></path><path d="M0 211L129 205L257 175L386 211L514 187L643 169L771 229L900 247L900 131L771 131L643 95L514 95L386 137L257 107L129 119L0 137Z" fill="#f3f6ff"></path><path d="M0 439L129 355L257 421L386 397L514 331L643 421L771 391L900 421L900 245L771 227L643 167L514 185L386 209L257 173L129 203L0 209Z" fill="#f9faff"></path><path d="M0 601L129 601L257 601L386 601L514 601L643 601L771 601L900 601L900 419L771 389L643 419L514 329L386 395L257 419L129 353L0 437Z" fill="#ffffff"></path></svg>