<svg id="visual" viewBox="0 0 900 600" width="900" height="600" xmlns="http://www.w3.org/2000/svg" xmlns:xlink="http://www.w3.org/1999/xlink" version="1.1"><path d="M0 193L129 247L257 151L386 127L514 235L643 199L771 193L900 151L900 0L771 0L643 0L514 0L386 0L257 0L129 0L0 0Z" fill="#ecf2ff"></path><path d="M0 361L129 403L257 325L386 319L514 355L643 337L771 337L900 361L900 149L771 191L643 197L514 233L386 125L257 149L129 245L0 191Z" fill="#f1f5ff"></path><path d="M0 451L129 451L257 403L386 391L514 415L643 391L771 385L900 421L900 359L771 335L643 335L514 353L386 317L257 323L129 401L0 359Z" fill="#f6f8ff"></path><path d="M0 505L129 517L257 463L386 481L514 517L643 451L771 481L900 511L900 419L771 383L643 389L514 413L386 389L257 401L129 449L0 449Z" fill="#fbfbff"></path><path d="M0 601L129 601L257 601L386 601L514 601L643 601L771 601L900 601L900 509L771 479L643 449L514 515L386 479L257 461L129 515L0 503Z" fill="#ffffff"></path></svg>