<svg id="visual" viewBox="0 0 900 600" width="900" height="600" xmlns="http://www.w3.org/2000/svg" xmlns:xlink="http://www.w3.org/1999/xlink" version="1.1"><g stroke-width="1" stroke-linejoin="bevel"><path d="M439 307L445 276L428 310Z" fill="#8d8d8d" stroke="#8d8d8d"></path><path d="M495 325L468 252L445 276Z" fill="#d0d0d0" stroke="#d0d0d0"></path><path d="M428 310L463 332L439 307Z" fill="#989898" stroke="#989898"></path><path d="M439 307L495 325L445 276Z" fill="#dbdbdb" stroke="#dbdbdb"></path><path d="M468 252L406 221L445 276Z" fill="#aeaeae" stroke="#aeaeae"></path><path d="M445 276L406 221L428 310Z" fill="#ffffff" stroke="#ffffff"></path><path d="M475 416L479 343L463 332Z" fill="#989898" stroke="#989898"></path><path d="M463 332L495 325L439 307Z" fill="#989898" stroke="#989898"></path><path d="M479 343L495 325L463 332Z" fill="#f3f3f3" stroke="#f3f3f3"></path><path d="M543 234L464 219L468 252Z" fill="#e7e7e7" stroke="#e7e7e7"></path><path d="M468 252L464 219L406 221Z" fill="#d0d0d0" stroke="#d0d0d0"></path><path d="M479 343L496 347L495 325Z" fill="#ffffff" stroke="#ffffff"></path><path d="M315 340L393 382L428 310Z" fill="#b9b9b9" stroke="#b9b9b9"></path><path d="M428 310L393 382L463 332Z" fill="#aeaeae" stroke="#aeaeae"></path><path d="M479 343L475 416L496 347Z" fill="#e7e7e7" stroke="#e7e7e7"></path><path d="M406 221L324 271L428 310Z" fill="#d0d0d0" stroke="#d0d0d0"></path><path d="M406 221L328 250L324 271Z" fill="#aeaeae" stroke="#aeaeae"></path><path d="M548 295L539 250L495 325Z" fill="#a3a3a3" stroke="#a3a3a3"></path><path d="M495 325L539 250L468 252Z" fill="#989898" stroke="#989898"></path><path d="M545 331L548 295L495 325Z" fill="#aeaeae" stroke="#aeaeae"></path><path d="M284 256L305 304L324 271Z" fill="#8d8d8d" stroke="#8d8d8d"></path><path d="M324 271L315 340L428 310Z" fill="#f3f3f3" stroke="#f3f3f3"></path><path d="M305 304L315 340L324 271Z" fill="#e7e7e7" stroke="#e7e7e7"></path><path d="M550 379L545 331L496 347Z" fill="#f3f3f3" stroke="#f3f3f3"></path><path d="M496 347L545 331L495 325Z" fill="#dbdbdb" stroke="#dbdbdb"></path><path d="M569 225L543 234L539 250Z" fill="#aeaeae" stroke="#aeaeae"></path><path d="M539 250L543 234L468 252Z" fill="#8d8d8d" stroke="#8d8d8d"></path><path d="M464 219L422 155L406 221Z" fill="#989898" stroke="#989898"></path><path d="M406 221L336 191L328 250Z" fill="#f3f3f3" stroke="#f3f3f3"></path><path d="M438 150L422 155L464 219Z" fill="#dbdbdb" stroke="#dbdbdb"></path><path d="M422 155L336 191L406 221Z" fill="#f3f3f3" stroke="#f3f3f3"></path><path d="M328 250L284 256L324 271Z" fill="#d0d0d0" stroke="#d0d0d0"></path><path d="M393 382L475 416L463 332Z" fill="#ffffff" stroke="#ffffff"></path><path d="M478 129L438 150L464 219Z" fill="#c4c4c4" stroke="#c4c4c4"></path><path d="M392 426L399 426L393 382Z" fill="#e7e7e7" stroke="#e7e7e7"></path><path d="M393 382L399 426L475 416Z" fill="#b9b9b9" stroke="#b9b9b9"></path><path d="M293 416L392 426L393 382Z" fill="#ffffff" stroke="#ffffff"></path><path d="M305 304L300 351L315 340Z" fill="#aeaeae" stroke="#aeaeae"></path><path d="M315 340L293 416L393 382Z" fill="#989898" stroke="#989898"></path><path d="M336 191L306 209L328 250Z" fill="#d0d0d0" stroke="#d0d0d0"></path><path d="M305 304L214 323L300 351Z" fill="#c4c4c4" stroke="#c4c4c4"></path><path d="M306 209L284 256L328 250Z" fill="#e7e7e7" stroke="#e7e7e7"></path><path d="M475 416L550 379L496 347Z" fill="#e7e7e7" stroke="#e7e7e7"></path><path d="M545 331L613 337L548 295Z" fill="#dbdbdb" stroke="#dbdbdb"></path><path d="M600 234L569 225L539 250Z" fill="#aeaeae" stroke="#aeaeae"></path><path d="M543 234L478 129L464 219Z" fill="#dbdbdb" stroke="#dbdbdb"></path><path d="M600 234L539 250L548 295Z" fill="#8d8d8d" stroke="#8d8d8d"></path><path d="M270 209L271 268L284 256Z" fill="#c4c4c4" stroke="#c4c4c4"></path><path d="M284 256L271 268L305 304Z" fill="#f3f3f3" stroke="#f3f3f3"></path><path d="M400 447L423 448L399 426Z" fill="#aeaeae" stroke="#aeaeae"></path><path d="M399 426L423 448L475 416Z" fill="#b9b9b9" stroke="#b9b9b9"></path><path d="M475 416L498 437L550 379Z" fill="#e7e7e7" stroke="#e7e7e7"></path><path d="M374 479L400 447L392 426Z" fill="#989898" stroke="#989898"></path><path d="M392 426L400 447L399 426Z" fill="#c4c4c4" stroke="#c4c4c4"></path><path d="M374 479L431 450L423 448Z" fill="#b9b9b9" stroke="#b9b9b9"></path><path d="M423 448L431 450L475 416Z" fill="#a3a3a3" stroke="#a3a3a3"></path><path d="M491 441L498 437L475 416Z" fill="#f3f3f3" stroke="#f3f3f3"></path><path d="M431 450L491 441L475 416Z" fill="#a3a3a3" stroke="#a3a3a3"></path><path d="M508 110L478 129L545 125Z" fill="#8d8d8d" stroke="#8d8d8d"></path><path d="M399 98L372 118L422 155Z" fill="#b9b9b9" stroke="#b9b9b9"></path><path d="M275 194L306 209L300 155Z" fill="#e7e7e7" stroke="#e7e7e7"></path><path d="M500 469L494 444L491 441Z" fill="#d0d0d0" stroke="#d0d0d0"></path><path d="M491 441L494 444L498 437Z" fill="#ffffff" stroke="#ffffff"></path><path d="M498 437L577 389L550 379Z" fill="#e7e7e7" stroke="#e7e7e7"></path><path d="M275 194L270 209L306 209Z" fill="#ffffff" stroke="#ffffff"></path><path d="M306 209L270 209L284 256Z" fill="#dbdbdb" stroke="#dbdbdb"></path><path d="M372 118L336 191L422 155Z" fill="#dbdbdb" stroke="#dbdbdb"></path><path d="M523 476L577 389L498 437Z" fill="#aeaeae" stroke="#aeaeae"></path><path d="M550 379L577 389L545 331Z" fill="#a3a3a3" stroke="#a3a3a3"></path><path d="M399 98L422 155L438 150Z" fill="#ffffff" stroke="#ffffff"></path><path d="M300 155L306 209L336 191Z" fill="#ffffff" stroke="#ffffff"></path><path d="M625 282L600 234L548 295Z" fill="#989898" stroke="#989898"></path><path d="M569 225L545 125L543 234Z" fill="#989898" stroke="#989898"></path><path d="M372 118L300 155L336 191Z" fill="#e7e7e7" stroke="#e7e7e7"></path><path d="M241 388L293 416L300 351Z" fill="#c4c4c4" stroke="#c4c4c4"></path><path d="M300 351L293 416L315 340Z" fill="#989898" stroke="#989898"></path><path d="M577 389L613 337L545 331Z" fill="#ffffff" stroke="#ffffff"></path><path d="M449 81L399 98L438 150Z" fill="#ffffff" stroke="#ffffff"></path><path d="M271 132L255 168L300 155Z" fill="#989898" stroke="#989898"></path><path d="M431 450L500 469L491 441Z" fill="#dbdbdb" stroke="#dbdbdb"></path><path d="M494 444L500 469L498 437Z" fill="#aeaeae" stroke="#aeaeae"></path><path d="M497 503L500 469L431 450Z" fill="#8d8d8d" stroke="#8d8d8d"></path><path d="M679 203L596 190L600 234Z" fill="#f3f3f3" stroke="#f3f3f3"></path><path d="M600 234L596 190L569 225Z" fill="#aeaeae" stroke="#aeaeae"></path><path d="M545 125L478 129L543 234Z" fill="#989898" stroke="#989898"></path><path d="M478 129L449 81L438 150Z" fill="#b9b9b9" stroke="#b9b9b9"></path><path d="M613 337L625 282L548 295Z" fill="#d0d0d0" stroke="#d0d0d0"></path><path d="M332 466L374 479L392 426Z" fill="#c4c4c4" stroke="#c4c4c4"></path><path d="M400 447L374 479L423 448Z" fill="#dbdbdb" stroke="#dbdbdb"></path><path d="M596 190L545 125L569 225Z" fill="#c4c4c4" stroke="#c4c4c4"></path><path d="M677 281L629 274L625 282Z" fill="#dbdbdb" stroke="#dbdbdb"></path><path d="M625 282L629 274L600 234Z" fill="#ffffff" stroke="#ffffff"></path><path d="M293 416L332 466L392 426Z" fill="#d0d0d0" stroke="#d0d0d0"></path><path d="M564 80L489 91L508 110Z" fill="#989898" stroke="#989898"></path><path d="M508 110L489 91L478 129Z" fill="#dbdbdb" stroke="#dbdbdb"></path><path d="M577 389L629 339L613 337Z" fill="#c4c4c4" stroke="#c4c4c4"></path><path d="M613 337L629 339L625 282Z" fill="#989898" stroke="#989898"></path><path d="M659 352L629 339L577 389Z" fill="#aeaeae" stroke="#aeaeae"></path><path d="M489 91L449 81L478 129Z" fill="#8d8d8d" stroke="#8d8d8d"></path><path d="M497 503L523 476L500 469Z" fill="#ffffff" stroke="#ffffff"></path><path d="M500 469L523 476L498 437Z" fill="#f3f3f3" stroke="#f3f3f3"></path><path d="M300 155L255 168L275 194Z" fill="#a3a3a3" stroke="#a3a3a3"></path><path d="M275 194L255 168L270 209Z" fill="#c4c4c4" stroke="#c4c4c4"></path><path d="M216 262L215 293L271 268Z" fill="#a3a3a3" stroke="#a3a3a3"></path><path d="M214 323L241 388L300 351Z" fill="#ffffff" stroke="#ffffff"></path><path d="M271 132L301 77L266 116Z" fill="#d0d0d0" stroke="#d0d0d0"></path><path d="M214 323L305 304L271 268Z" fill="#8d8d8d" stroke="#8d8d8d"></path><path d="M293 416L284 445L332 466Z" fill="#e7e7e7" stroke="#e7e7e7"></path><path d="M250 408L284 445L293 416Z" fill="#989898" stroke="#989898"></path><path d="M216 262L271 268L270 209Z" fill="#f3f3f3" stroke="#f3f3f3"></path><path d="M189 212L216 262L270 209Z" fill="#dbdbdb" stroke="#dbdbdb"></path><path d="M241 388L250 408L293 416Z" fill="#c4c4c4" stroke="#c4c4c4"></path><path d="M210 362L214 323L126 322Z" fill="#e7e7e7" stroke="#e7e7e7"></path><path d="M215 293L214 323L271 268Z" fill="#d0d0d0" stroke="#d0d0d0"></path><path d="M571 103L553 108L545 125Z" fill="#aeaeae" stroke="#aeaeae"></path><path d="M545 125L553 108L508 110Z" fill="#e7e7e7" stroke="#e7e7e7"></path><path d="M271 132L300 155L301 77Z" fill="#e7e7e7" stroke="#e7e7e7"></path><path d="M300 155L372 118L301 77Z" fill="#e7e7e7" stroke="#e7e7e7"></path><path d="M466 550L497 503L431 450Z" fill="#aeaeae" stroke="#aeaeae"></path><path d="M214 323L210 362L241 388Z" fill="#c4c4c4" stroke="#c4c4c4"></path><path d="M241 388L195 470L250 408Z" fill="#d0d0d0" stroke="#d0d0d0"></path><path d="M158 281L214 323L215 293Z" fill="#8d8d8d" stroke="#8d8d8d"></path><path d="M615 133L571 103L545 125Z" fill="#989898" stroke="#989898"></path><path d="M553 108L564 80L508 110Z" fill="#8d8d8d" stroke="#8d8d8d"></path><path d="M489 91L450 39L449 81Z" fill="#e7e7e7" stroke="#e7e7e7"></path><path d="M615 133L545 125L596 190Z" fill="#a3a3a3" stroke="#a3a3a3"></path><path d="M301 77L372 118L349 47Z" fill="#ffffff" stroke="#ffffff"></path><path d="M271 132L250 125L255 168Z" fill="#f3f3f3" stroke="#f3f3f3"></path><path d="M255 168L199 192L270 209Z" fill="#b9b9b9" stroke="#b9b9b9"></path><path d="M644 438L659 352L577 389Z" fill="#ffffff" stroke="#ffffff"></path><path d="M629 339L677 281L625 282Z" fill="#c4c4c4" stroke="#c4c4c4"></path><path d="M671 170L615 133L596 190Z" fill="#a3a3a3" stroke="#a3a3a3"></path><path d="M644 438L577 389L614 488Z" fill="#f3f3f3" stroke="#f3f3f3"></path><path d="M266 116L250 125L271 132Z" fill="#989898" stroke="#989898"></path><path d="M291 516L332 466L284 445Z" fill="#b9b9b9" stroke="#b9b9b9"></path><path d="M291 516L329 511L332 466Z" fill="#aeaeae" stroke="#aeaeae"></path><path d="M332 466L329 511L374 479Z" fill="#8d8d8d" stroke="#8d8d8d"></path><path d="M374 479L399 537L431 450Z" fill="#8d8d8d" stroke="#8d8d8d"></path><path d="M291 516L284 445L260 511Z" fill="#ffffff" stroke="#ffffff"></path><path d="M679 203L600 234L629 274Z" fill="#a3a3a3" stroke="#a3a3a3"></path><path d="M349 47L372 118L399 98Z" fill="#b9b9b9" stroke="#b9b9b9"></path><path d="M266 116L173 74L250 125Z" fill="#a3a3a3" stroke="#a3a3a3"></path><path d="M211 157L199 192L255 168Z" fill="#989898" stroke="#989898"></path><path d="M216 262L158 281L215 293Z" fill="#f3f3f3" stroke="#f3f3f3"></path><path d="M659 352L677 281L629 339Z" fill="#8d8d8d" stroke="#8d8d8d"></path><path d="M603 74L564 80L571 103Z" fill="#d0d0d0" stroke="#d0d0d0"></path><path d="M571 103L564 80L553 108Z" fill="#ffffff" stroke="#ffffff"></path><path d="M449 81L450 39L399 98Z" fill="#b9b9b9" stroke="#b9b9b9"></path><path d="M329 511L399 537L374 479Z" fill="#aeaeae" stroke="#aeaeae"></path><path d="M481 0L450 39L489 91Z" fill="#ffffff" stroke="#ffffff"></path><path d="M199 192L189 212L270 209Z" fill="#c4c4c4" stroke="#c4c4c4"></path><path d="M214 143L211 157L255 168Z" fill="#aeaeae" stroke="#aeaeae"></path><path d="M199 192L190 183L189 212Z" fill="#dbdbdb" stroke="#dbdbdb"></path><path d="M214 143L255 168L250 125Z" fill="#d0d0d0" stroke="#d0d0d0"></path><path d="M450 39L349 47L399 98Z" fill="#989898" stroke="#989898"></path><path d="M173 74L214 143L250 125Z" fill="#b9b9b9" stroke="#b9b9b9"></path><path d="M211 157L190 183L199 192Z" fill="#a3a3a3" stroke="#a3a3a3"></path><path d="M214 143L190 183L211 157Z" fill="#c4c4c4" stroke="#c4c4c4"></path><path d="M647 450L644 438L614 488Z" fill="#aeaeae" stroke="#aeaeae"></path><path d="M751 298L710 247L677 281Z" fill="#d0d0d0" stroke="#d0d0d0"></path><path d="M649 104L624 113L615 133Z" fill="#dbdbdb" stroke="#dbdbdb"></path><path d="M615 133L624 113L571 103Z" fill="#aeaeae" stroke="#aeaeae"></path><path d="M399 537L466 550L431 450Z" fill="#a3a3a3" stroke="#a3a3a3"></path><path d="M497 503L608 533L523 476Z" fill="#dbdbdb" stroke="#dbdbdb"></path><path d="M677 281L679 203L629 274Z" fill="#b9b9b9" stroke="#b9b9b9"></path><path d="M260 511L284 445L195 470Z" fill="#f3f3f3" stroke="#f3f3f3"></path><path d="M329 511L342 547L399 537Z" fill="#c4c4c4" stroke="#c4c4c4"></path><path d="M466 550L491 547L497 503Z" fill="#dbdbdb" stroke="#dbdbdb"></path><path d="M113 254L158 281L189 212Z" fill="#989898" stroke="#989898"></path><path d="M189 212L158 281L216 262Z" fill="#f3f3f3" stroke="#f3f3f3"></path><path d="M195 470L284 445L250 408Z" fill="#dbdbdb" stroke="#dbdbdb"></path><path d="M679 203L671 170L596 190Z" fill="#aeaeae" stroke="#aeaeae"></path><path d="M614 488L577 389L523 476Z" fill="#d0d0d0" stroke="#d0d0d0"></path><path d="M644 438L671 431L659 352Z" fill="#dbdbdb" stroke="#dbdbdb"></path><path d="M291 516L342 547L329 511Z" fill="#c4c4c4" stroke="#c4c4c4"></path><path d="M399 537L425 600L466 550Z" fill="#d0d0d0" stroke="#d0d0d0"></path><path d="M608 533L614 488L523 476Z" fill="#dbdbdb" stroke="#dbdbdb"></path><path d="M624 113L603 74L571 103Z" fill="#d0d0d0" stroke="#d0d0d0"></path><path d="M550 0L481 0L489 91Z" fill="#f3f3f3" stroke="#f3f3f3"></path><path d="M649 104L603 74L624 113Z" fill="#f3f3f3" stroke="#f3f3f3"></path><path d="M195 470L241 388L210 362Z" fill="#989898" stroke="#989898"></path><path d="M291 516L298 571L342 547Z" fill="#e7e7e7" stroke="#e7e7e7"></path><path d="M692 148L673 154L671 170Z" fill="#e7e7e7" stroke="#e7e7e7"></path><path d="M671 170L673 154L615 133Z" fill="#c4c4c4" stroke="#c4c4c4"></path><path d="M713 511L671 431L647 450Z" fill="#e7e7e7" stroke="#e7e7e7"></path><path d="M647 450L671 431L644 438Z" fill="#a3a3a3" stroke="#a3a3a3"></path><path d="M734 344L677 281L659 352Z" fill="#f3f3f3" stroke="#f3f3f3"></path><path d="M677 281L710 247L679 203Z" fill="#f3f3f3" stroke="#f3f3f3"></path><path d="M679 203L692 148L671 170Z" fill="#f3f3f3" stroke="#f3f3f3"></path><path d="M349 47L312 28L301 77Z" fill="#d0d0d0" stroke="#d0d0d0"></path><path d="M301 77L264 0L266 116Z" fill="#aeaeae" stroke="#aeaeae"></path><path d="M357 0L312 28L349 47Z" fill="#8d8d8d" stroke="#8d8d8d"></path><path d="M673 154L649 104L615 133Z" fill="#b9b9b9" stroke="#b9b9b9"></path><path d="M550 0L489 91L564 80Z" fill="#dbdbdb" stroke="#dbdbdb"></path><path d="M450 39L357 0L349 47Z" fill="#e7e7e7" stroke="#e7e7e7"></path><path d="M134 417L195 470L210 362Z" fill="#aeaeae" stroke="#aeaeae"></path><path d="M671 431L704 397L659 352Z" fill="#d0d0d0" stroke="#d0d0d0"></path><path d="M481 0L357 0L450 39Z" fill="#d0d0d0" stroke="#d0d0d0"></path><path d="M745 187L692 148L679 203Z" fill="#c4c4c4" stroke="#c4c4c4"></path><path d="M673 154L692 148L649 104Z" fill="#c4c4c4" stroke="#c4c4c4"></path><path d="M491 547L608 533L497 503Z" fill="#f3f3f3" stroke="#f3f3f3"></path><path d="M614 488L653 521L647 450Z" fill="#dbdbdb" stroke="#dbdbdb"></path><path d="M758 443L768 396L704 397Z" fill="#c4c4c4" stroke="#c4c4c4"></path><path d="M615 533L637 565L643 544Z" fill="#e7e7e7" stroke="#e7e7e7"></path><path d="M113 254L126 322L158 281Z" fill="#f3f3f3" stroke="#f3f3f3"></path><path d="M158 281L126 322L214 323Z" fill="#ffffff" stroke="#ffffff"></path><path d="M571 600L608 533L491 547Z" fill="#dbdbdb" stroke="#dbdbdb"></path><path d="M608 533L615 533L614 488Z" fill="#ffffff" stroke="#ffffff"></path><path d="M299 600L298 571L280 600Z" fill="#f3f3f3" stroke="#f3f3f3"></path><path d="M260 511L298 571L291 516Z" fill="#c4c4c4" stroke="#c4c4c4"></path><path d="M342 547L425 600L399 537Z" fill="#aeaeae" stroke="#aeaeae"></path><path d="M466 550L460 600L491 547Z" fill="#8d8d8d" stroke="#8d8d8d"></path><path d="M704 397L734 344L659 352Z" fill="#c4c4c4" stroke="#c4c4c4"></path><path d="M710 247L745 187L679 203Z" fill="#e7e7e7" stroke="#e7e7e7"></path><path d="M299 600L425 600L342 547Z" fill="#dbdbdb" stroke="#dbdbdb"></path><path d="M425 600L451 600L466 550Z" fill="#c4c4c4" stroke="#c4c4c4"></path><path d="M451 600L460 600L466 550Z" fill="#dbdbdb" stroke="#dbdbdb"></path><path d="M583 0L564 80L603 74Z" fill="#ffffff" stroke="#ffffff"></path><path d="M583 0L550 0L564 80Z" fill="#989898" stroke="#989898"></path><path d="M583 0L603 74L597 0Z" fill="#a3a3a3" stroke="#a3a3a3"></path><path d="M357 0L305 0L312 28Z" fill="#8d8d8d" stroke="#8d8d8d"></path><path d="M312 28L264 0L301 77Z" fill="#989898" stroke="#989898"></path><path d="M89 191L189 212L190 183Z" fill="#989898" stroke="#989898"></path><path d="M89 191L113 254L189 212Z" fill="#b9b9b9" stroke="#b9b9b9"></path><path d="M94 138L190 183L214 143Z" fill="#989898" stroke="#989898"></path><path d="M357 0L304 -5L305 0Z" fill="#ffffff" stroke="#ffffff"></path><path d="M305 0L277 0L312 28Z" fill="#c4c4c4" stroke="#c4c4c4"></path><path d="M481 0L304 -5L357 0Z" fill="#dbdbdb" stroke="#dbdbdb"></path><path d="M550 0L304 -5L481 0Z" fill="#e7e7e7" stroke="#e7e7e7"></path><path d="M113 352L116 358L126 322Z" fill="#989898" stroke="#989898"></path><path d="M126 322L116 358L210 362Z" fill="#f3f3f3" stroke="#f3f3f3"></path><path d="M116 358L134 417L210 362Z" fill="#b9b9b9" stroke="#b9b9b9"></path><path d="M280 600L298 571L244 600Z" fill="#ffffff" stroke="#ffffff"></path><path d="M60 351L113 352L126 322Z" fill="#ffffff" stroke="#ffffff"></path><path d="M116 358L107 376L134 417Z" fill="#f3f3f3" stroke="#f3f3f3"></path><path d="M734 344L751 298L677 281Z" fill="#f3f3f3" stroke="#f3f3f3"></path><path d="M643 544L653 521L615 533Z" fill="#ffffff" stroke="#ffffff"></path><path d="M615 533L653 521L614 488Z" fill="#8d8d8d" stroke="#8d8d8d"></path><path d="M704 397L768 396L734 344Z" fill="#dbdbdb" stroke="#dbdbdb"></path><path d="M304 -5L277 0L305 0Z" fill="#b9b9b9" stroke="#b9b9b9"></path><path d="M597 0L603 74L641 0Z" fill="#e7e7e7" stroke="#e7e7e7"></path><path d="M550 0L583 0L304 -5Z" fill="#b9b9b9" stroke="#b9b9b9"></path><path d="M778 240L756 286L801 242Z" fill="#e7e7e7" stroke="#e7e7e7"></path><path d="M751 298L756 286L710 247Z" fill="#dbdbdb" stroke="#dbdbdb"></path><path d="M304 -5L264 0L277 0Z" fill="#e7e7e7" stroke="#e7e7e7"></path><path d="M277 0L264 0L312 28Z" fill="#8d8d8d" stroke="#8d8d8d"></path><path d="M60 351L107 376L113 352Z" fill="#ffffff" stroke="#ffffff"></path><path d="M113 352L107 376L116 358Z" fill="#e7e7e7" stroke="#e7e7e7"></path><path d="M778 240L745 187L710 247Z" fill="#8d8d8d" stroke="#8d8d8d"></path><path d="M641 0L603 74L649 104Z" fill="#e7e7e7" stroke="#e7e7e7"></path><path d="M264 0L173 74L266 116Z" fill="#ffffff" stroke="#ffffff"></path><path d="M637 565L615 533L608 533Z" fill="#989898" stroke="#989898"></path><path d="M750 459L704 397L671 431Z" fill="#a3a3a3" stroke="#a3a3a3"></path><path d="M727 104L649 104L692 148Z" fill="#b9b9b9" stroke="#b9b9b9"></path><path d="M583 0L597 0L304 -5Z" fill="#c4c4c4" stroke="#c4c4c4"></path><path d="M201 567L260 511L195 470Z" fill="#f3f3f3" stroke="#f3f3f3"></path><path d="M298 571L299 600L342 547Z" fill="#dbdbdb" stroke="#dbdbdb"></path><path d="M69 258L90 278L113 254Z" fill="#e7e7e7" stroke="#e7e7e7"></path><path d="M113 254L90 278L126 322Z" fill="#ffffff" stroke="#ffffff"></path><path d="M154 523L160 500L98 503Z" fill="#989898" stroke="#989898"></path><path d="M134 417L160 500L195 470Z" fill="#dbdbdb" stroke="#dbdbdb"></path><path d="M460 600L571 600L491 547Z" fill="#f3f3f3" stroke="#f3f3f3"></path><path d="M571 600L592 591L608 533Z" fill="#dbdbdb" stroke="#dbdbdb"></path><path d="M574 600L592 591L571 600Z" fill="#aeaeae" stroke="#aeaeae"></path><path d="M224 587L298 571L260 511Z" fill="#f3f3f3" stroke="#f3f3f3"></path><path d="M793 184L753 172L745 187Z" fill="#c4c4c4" stroke="#c4c4c4"></path><path d="M745 187L753 172L692 148Z" fill="#aeaeae" stroke="#aeaeae"></path><path d="M592 591L637 565L608 533Z" fill="#c4c4c4" stroke="#c4c4c4"></path><path d="M643 544L713 511L653 521Z" fill="#a3a3a3" stroke="#a3a3a3"></path><path d="M753 172L727 104L692 148Z" fill="#a3a3a3" stroke="#a3a3a3"></path><path d="M94 161L89 191L190 183Z" fill="#b9b9b9" stroke="#b9b9b9"></path><path d="M801 242L756 286L839 265Z" fill="#a3a3a3" stroke="#a3a3a3"></path><path d="M756 286L778 240L710 247Z" fill="#8d8d8d" stroke="#8d8d8d"></path><path d="M713 511L647 450L653 521Z" fill="#e7e7e7" stroke="#e7e7e7"></path><path d="M734 344L803 383L751 298Z" fill="#c4c4c4" stroke="#c4c4c4"></path><path d="M94 138L94 161L190 183Z" fill="#f3f3f3" stroke="#f3f3f3"></path><path d="M724 24L641 0L649 104Z" fill="#ffffff" stroke="#ffffff"></path><path d="M597 0L641 0L304 -5Z" fill="#c4c4c4" stroke="#c4c4c4"></path><path d="M160 500L201 567L195 470Z" fill="#c4c4c4" stroke="#c4c4c4"></path><path d="M43 181L69 258L89 191Z" fill="#989898" stroke="#989898"></path><path d="M89 191L69 258L113 254Z" fill="#e7e7e7" stroke="#e7e7e7"></path><path d="M90 278L60 351L126 322Z" fill="#a3a3a3" stroke="#a3a3a3"></path><path d="M100 465L160 500L134 417Z" fill="#c4c4c4" stroke="#c4c4c4"></path><path d="M160 500L154 523L201 567Z" fill="#dbdbdb" stroke="#dbdbdb"></path><path d="M100 465L134 417L52 405Z" fill="#d0d0d0" stroke="#d0d0d0"></path><path d="M667 604L713 511L643 544Z" fill="#989898" stroke="#989898"></path><path d="M201 567L224 587L260 511Z" fill="#f3f3f3" stroke="#f3f3f3"></path><path d="M224 587L244 600L298 571Z" fill="#989898" stroke="#989898"></path><path d="M713 511L750 459L671 431Z" fill="#f3f3f3" stroke="#f3f3f3"></path><path d="M750 459L758 443L704 397Z" fill="#d0d0d0" stroke="#d0d0d0"></path><path d="M173 74L94 138L214 143Z" fill="#989898" stroke="#989898"></path><path d="M94 161L43 181L89 191Z" fill="#a3a3a3" stroke="#a3a3a3"></path><path d="M128 68L94 138L173 74Z" fill="#aeaeae" stroke="#aeaeae"></path><path d="M52 405L134 417L107 376Z" fill="#d0d0d0" stroke="#d0d0d0"></path><path d="M173 0L128 68L173 74Z" fill="#f3f3f3" stroke="#f3f3f3"></path><path d="M69 258L60 351L90 278Z" fill="#b9b9b9" stroke="#b9b9b9"></path><path d="M835 334L756 286L751 298Z" fill="#aeaeae" stroke="#aeaeae"></path><path d="M778 240L793 184L745 187Z" fill="#aeaeae" stroke="#aeaeae"></path><path d="M753 172L760 94L727 104Z" fill="#d0d0d0" stroke="#d0d0d0"></path><path d="M803 383L734 344L768 396Z" fill="#dbdbdb" stroke="#dbdbdb"></path><path d="M789 427L779 425L758 443Z" fill="#ffffff" stroke="#ffffff"></path><path d="M758 443L779 425L768 396Z" fill="#ffffff" stroke="#ffffff"></path><path d="M789 427L758 443L801 478Z" fill="#a3a3a3" stroke="#a3a3a3"></path><path d="M801 242L793 184L778 240Z" fill="#a3a3a3" stroke="#a3a3a3"></path><path d="M86 0L118 69L128 68Z" fill="#dbdbdb" stroke="#dbdbdb"></path><path d="M128 68L118 69L94 138Z" fill="#dbdbdb" stroke="#dbdbdb"></path><path d="M592 591L648 600L637 565Z" fill="#dbdbdb" stroke="#dbdbdb"></path><path d="M637 565L661 600L643 544Z" fill="#d0d0d0" stroke="#d0d0d0"></path><path d="M801 478L758 443L750 459Z" fill="#dbdbdb" stroke="#dbdbdb"></path><path d="M574 600L648 600L592 591Z" fill="#a3a3a3" stroke="#a3a3a3"></path><path d="M304 -5L179 0L264 0Z" fill="#ffffff" stroke="#ffffff"></path><path d="M264 0L179 0L173 74Z" fill="#dbdbdb" stroke="#dbdbdb"></path><path d="M118 69L79 132L94 138Z" fill="#a3a3a3" stroke="#a3a3a3"></path><path d="M94 138L79 132L94 161Z" fill="#e7e7e7" stroke="#e7e7e7"></path><path d="M0 404L52 405L-3 400Z" fill="#a3a3a3" stroke="#a3a3a3"></path><path d="M798 180L760 94L753 172Z" fill="#aeaeae" stroke="#aeaeae"></path><path d="M727 104L732 43L649 104Z" fill="#e7e7e7" stroke="#e7e7e7"></path><path d="M304 -5L173 0L179 0Z" fill="#e7e7e7" stroke="#e7e7e7"></path><path d="M179 0L173 0L173 74Z" fill="#a3a3a3" stroke="#a3a3a3"></path><path d="M828 236L798 180L793 184Z" fill="#aeaeae" stroke="#aeaeae"></path><path d="M793 184L798 180L753 172Z" fill="#ffffff" stroke="#ffffff"></path><path d="M801 478L750 459L713 511Z" fill="#ffffff" stroke="#ffffff"></path><path d="M779 425L789 427L768 396Z" fill="#d0d0d0" stroke="#d0d0d0"></path><path d="M201 567L199 600L224 587Z" fill="#aeaeae" stroke="#aeaeae"></path><path d="M224 587L199 600L244 600Z" fill="#aeaeae" stroke="#aeaeae"></path><path d="M194 600L199 600L201 567Z" fill="#b9b9b9" stroke="#b9b9b9"></path><path d="M194 600L201 567L154 523Z" fill="#d0d0d0" stroke="#d0d0d0"></path><path d="M789 427L803 383L768 396Z" fill="#f3f3f3" stroke="#f3f3f3"></path><path d="M648 600L661 600L637 565Z" fill="#989898" stroke="#989898"></path><path d="M96 600L194 600L154 523Z" fill="#f3f3f3" stroke="#f3f3f3"></path><path d="M744 55L732 43L727 104Z" fill="#aeaeae" stroke="#aeaeae"></path><path d="M732 43L764 0L744 0Z" fill="#989898" stroke="#989898"></path><path d="M760 94L744 55L727 104Z" fill="#ffffff" stroke="#ffffff"></path><path d="M44 492L98 503L100 465Z" fill="#f3f3f3" stroke="#f3f3f3"></path><path d="M100 465L98 503L160 500Z" fill="#e7e7e7" stroke="#e7e7e7"></path><path d="M0 331L60 351L69 258Z" fill="#e7e7e7" stroke="#e7e7e7"></path><path d="M60 351L52 405L107 376Z" fill="#dbdbdb" stroke="#dbdbdb"></path><path d="M574 600L667 604L648 600Z" fill="#dbdbdb" stroke="#dbdbdb"></path><path d="M648 600L667 604L661 600Z" fill="#a3a3a3" stroke="#a3a3a3"></path><path d="M661 600L667 604L643 544Z" fill="#d0d0d0" stroke="#d0d0d0"></path><path d="M571 600L667 604L574 600Z" fill="#f3f3f3" stroke="#f3f3f3"></path><path d="M460 600L667 604L571 600Z" fill="#f3f3f3" stroke="#f3f3f3"></path><path d="M451 600L667 604L460 600Z" fill="#f3f3f3" stroke="#f3f3f3"></path><path d="M425 600L667 604L451 600Z" fill="#989898" stroke="#989898"></path><path d="M299 600L667 604L425 600Z" fill="#c4c4c4" stroke="#c4c4c4"></path><path d="M280 600L667 604L299 600Z" fill="#989898" stroke="#989898"></path><path d="M244 600L667 604L280 600Z" fill="#aeaeae" stroke="#aeaeae"></path><path d="M199 600L667 604L244 600Z" fill="#a3a3a3" stroke="#a3a3a3"></path><path d="M194 600L667 604L199 600Z" fill="#d0d0d0" stroke="#d0d0d0"></path><path d="M731 0L724 24L744 0Z" fill="#e7e7e7" stroke="#e7e7e7"></path><path d="M732 43L724 24L649 104Z" fill="#f3f3f3" stroke="#f3f3f3"></path><path d="M0 139L43 181L79 132Z" fill="#dbdbdb" stroke="#dbdbdb"></path><path d="M79 132L43 181L94 161Z" fill="#f3f3f3" stroke="#f3f3f3"></path><path d="M801 242L828 236L793 184Z" fill="#a3a3a3" stroke="#a3a3a3"></path><path d="M732 43L744 55L764 0Z" fill="#aeaeae" stroke="#aeaeae"></path><path d="M839 265L828 236L801 242Z" fill="#e7e7e7" stroke="#e7e7e7"></path><path d="M888 399L835 334L803 383Z" fill="#ffffff" stroke="#ffffff"></path><path d="M803 383L835 334L751 298Z" fill="#ffffff" stroke="#ffffff"></path><path d="M835 334L839 265L756 286Z" fill="#a3a3a3" stroke="#a3a3a3"></path><path d="M86 0L68 82L118 69Z" fill="#8d8d8d" stroke="#8d8d8d"></path><path d="M118 69L68 82L79 132Z" fill="#e7e7e7" stroke="#e7e7e7"></path><path d="M0 268L13 260L0 238Z" fill="#8d8d8d" stroke="#8d8d8d"></path><path d="M0 238L13 260L69 258Z" fill="#a3a3a3" stroke="#a3a3a3"></path><path d="M813 498L801 478L713 511Z" fill="#aeaeae" stroke="#aeaeae"></path><path d="M789 427L888 399L803 383Z" fill="#dbdbdb" stroke="#dbdbdb"></path><path d="M833 126L760 94L798 180Z" fill="#ffffff" stroke="#ffffff"></path><path d="M744 0L724 24L732 43Z" fill="#989898" stroke="#989898"></path><path d="M724 24L731 0L641 0Z" fill="#dbdbdb" stroke="#dbdbdb"></path><path d="M641 0L731 0L304 -5Z" fill="#aeaeae" stroke="#aeaeae"></path><path d="M68 82L56 93L79 132Z" fill="#aeaeae" stroke="#aeaeae"></path><path d="M903 214L842 186L828 236Z" fill="#989898" stroke="#989898"></path><path d="M828 236L842 186L798 180Z" fill="#e7e7e7" stroke="#e7e7e7"></path><path d="M764 0L744 55L813 45Z" fill="#e7e7e7" stroke="#e7e7e7"></path><path d="M731 0L744 0L304 -5Z" fill="#a3a3a3" stroke="#a3a3a3"></path><path d="M0 238L69 258L43 181Z" fill="#dbdbdb" stroke="#dbdbdb"></path><path d="M13 260L0 331L69 258Z" fill="#e7e7e7" stroke="#e7e7e7"></path><path d="M0 268L0 331L13 260Z" fill="#c4c4c4" stroke="#c4c4c4"></path><path d="M52 405L44 492L100 465Z" fill="#ffffff" stroke="#ffffff"></path><path d="M0 182L0 238L43 181Z" fill="#aeaeae" stroke="#aeaeae"></path><path d="M0 420L44 492L52 405Z" fill="#c4c4c4" stroke="#c4c4c4"></path><path d="M98 503L96 600L154 523Z" fill="#aeaeae" stroke="#aeaeae"></path><path d="M842 186L833 126L798 180Z" fill="#dbdbdb" stroke="#dbdbdb"></path><path d="M0 527L46 502L44 492Z" fill="#f3f3f3" stroke="#f3f3f3"></path><path d="M44 492L46 502L98 503Z" fill="#f3f3f3" stroke="#f3f3f3"></path><path d="M824 533L813 498L713 511Z" fill="#a3a3a3" stroke="#a3a3a3"></path><path d="M801 478L821 485L789 427Z" fill="#8d8d8d" stroke="#8d8d8d"></path><path d="M813 498L821 485L801 478Z" fill="#dbdbdb" stroke="#dbdbdb"></path><path d="M667 604L740 600L713 511Z" fill="#dbdbdb" stroke="#dbdbdb"></path><path d="M0 177L0 182L43 181Z" fill="#c4c4c4" stroke="#c4c4c4"></path><path d="M0 139L0 177L43 181Z" fill="#8d8d8d" stroke="#8d8d8d"></path><path d="M813 45L744 55L760 94Z" fill="#dbdbdb" stroke="#dbdbdb"></path><path d="M744 0L764 0L304 -5Z" fill="#8d8d8d" stroke="#8d8d8d"></path><path d="M-3 400L52 405L60 351Z" fill="#8d8d8d" stroke="#8d8d8d"></path><path d="M0 268L-3 400L0 331Z" fill="#dbdbdb" stroke="#dbdbdb"></path><path d="M0 331L-3 400L60 351Z" fill="#8d8d8d" stroke="#8d8d8d"></path><path d="M0 404L0 420L52 405Z" fill="#f3f3f3" stroke="#f3f3f3"></path><path d="M-5 111L-3 400L0 268Z" fill="#ffffff" stroke="#ffffff"></path><path d="M-5 111L0 268L0 238Z" fill="#aeaeae" stroke="#aeaeae"></path><path d="M-5 111L0 238L0 182Z" fill="#e7e7e7" stroke="#e7e7e7"></path><path d="M68 82L42 49L56 93Z" fill="#f3f3f3" stroke="#f3f3f3"></path><path d="M56 93L0 139L79 132Z" fill="#e7e7e7" stroke="#e7e7e7"></path><path d="M173 0L86 0L128 68Z" fill="#8d8d8d" stroke="#8d8d8d"></path><path d="M304 -5L86 0L173 0Z" fill="#989898" stroke="#989898"></path><path d="M-3 400L0 420L0 404Z" fill="#ffffff" stroke="#ffffff"></path><path d="M-5 111L0 139L56 93Z" fill="#f3f3f3" stroke="#f3f3f3"></path><path d="M0 177L-5 111L0 182Z" fill="#f3f3f3" stroke="#f3f3f3"></path><path d="M86 0L42 49L68 82Z" fill="#8d8d8d" stroke="#8d8d8d"></path><path d="M85 598L98 503L53 591Z" fill="#a3a3a3" stroke="#a3a3a3"></path><path d="M85 598L96 600L98 503Z" fill="#aeaeae" stroke="#aeaeae"></path><path d="M194 600L96 600L667 604Z" fill="#dbdbdb" stroke="#dbdbdb"></path><path d="M833 126L813 45L760 94Z" fill="#c4c4c4" stroke="#c4c4c4"></path><path d="M53 591L98 503L46 502Z" fill="#f3f3f3" stroke="#f3f3f3"></path><path d="M813 45L794 2L764 0Z" fill="#dbdbdb" stroke="#dbdbdb"></path><path d="M740 600L824 533L713 511Z" fill="#dbdbdb" stroke="#dbdbdb"></path><path d="M813 498L824 533L821 485Z" fill="#989898" stroke="#989898"></path><path d="M900 395L900 274L835 334Z" fill="#dbdbdb" stroke="#dbdbdb"></path><path d="M835 334L900 274L839 265Z" fill="#dbdbdb" stroke="#dbdbdb"></path><path d="M42 49L-5 111L56 93Z" fill="#e7e7e7" stroke="#e7e7e7"></path><path d="M0 139L-5 111L0 177Z" fill="#a3a3a3" stroke="#a3a3a3"></path><path d="M839 265L900 245L828 236Z" fill="#ffffff" stroke="#ffffff"></path><path d="M842 186L900 147L833 126Z" fill="#aeaeae" stroke="#aeaeae"></path><path d="M833 126L900 62L813 45Z" fill="#b9b9b9" stroke="#b9b9b9"></path><path d="M888 399L789 427L870 479Z" fill="#e7e7e7" stroke="#e7e7e7"></path><path d="M870 479L789 427L821 485Z" fill="#aeaeae" stroke="#aeaeae"></path><path d="M900 274L900 245L839 265Z" fill="#aeaeae" stroke="#aeaeae"></path><path d="M740 600L793 600L824 533Z" fill="#aeaeae" stroke="#aeaeae"></path><path d="M824 533L870 479L821 485Z" fill="#ffffff" stroke="#ffffff"></path><path d="M817 604L793 600L740 600Z" fill="#c4c4c4" stroke="#c4c4c4"></path><path d="M900 274L903 214L900 245Z" fill="#ffffff" stroke="#ffffff"></path><path d="M900 245L903 214L828 236Z" fill="#989898" stroke="#989898"></path><path d="M813 45L826 0L794 2Z" fill="#b9b9b9" stroke="#b9b9b9"></path><path d="M900 500L870 479L824 533Z" fill="#e7e7e7" stroke="#e7e7e7"></path><path d="M0 527L53 591L46 502Z" fill="#f3f3f3" stroke="#f3f3f3"></path><path d="M53 591L60 600L85 598Z" fill="#dbdbdb" stroke="#dbdbdb"></path><path d="M85 598L60 600L96 600Z" fill="#989898" stroke="#989898"></path><path d="M96 600L60 600L667 604Z" fill="#aeaeae" stroke="#aeaeae"></path><path d="M900 441L900 395L888 399Z" fill="#aeaeae" stroke="#aeaeae"></path><path d="M888 399L900 395L835 334Z" fill="#e7e7e7" stroke="#e7e7e7"></path><path d="M900 274L900 395L903 214Z" fill="#a3a3a3" stroke="#a3a3a3"></path><path d="M903 214L900 172L842 186Z" fill="#f3f3f3" stroke="#f3f3f3"></path><path d="M0 420L0 527L44 492Z" fill="#d0d0d0" stroke="#d0d0d0"></path><path d="M53 591L0 600L60 600Z" fill="#aeaeae" stroke="#aeaeae"></path><path d="M-3 400L0 527L0 420Z" fill="#a3a3a3" stroke="#a3a3a3"></path><path d="M900 62L826 0L813 45Z" fill="#dbdbdb" stroke="#dbdbdb"></path><path d="M794 2L826 0L764 0Z" fill="#aeaeae" stroke="#aeaeae"></path><path d="M764 0L826 0L304 -5Z" fill="#989898" stroke="#989898"></path><path d="M903 214L900 147L900 172Z" fill="#989898" stroke="#989898"></path><path d="M900 172L900 147L842 186Z" fill="#b9b9b9" stroke="#b9b9b9"></path><path d="M870 479L900 441L888 399Z" fill="#d0d0d0" stroke="#d0d0d0"></path><path d="M900 395L900 441L903 214Z" fill="#e7e7e7" stroke="#e7e7e7"></path><path d="M900 446L900 441L870 479Z" fill="#c4c4c4" stroke="#c4c4c4"></path><path d="M900 452L900 446L870 479Z" fill="#f3f3f3" stroke="#f3f3f3"></path><path d="M900 441L900 446L903 214Z" fill="#aeaeae" stroke="#aeaeae"></path><path d="M900 500L900 452L870 479Z" fill="#e7e7e7" stroke="#e7e7e7"></path><path d="M900 446L900 452L903 214Z" fill="#c4c4c4" stroke="#c4c4c4"></path><path d="M86 0L20 0L42 49Z" fill="#c4c4c4" stroke="#c4c4c4"></path><path d="M42 49L0 23L-5 111Z" fill="#a3a3a3" stroke="#a3a3a3"></path><path d="M304 -5L20 0L86 0Z" fill="#8d8d8d" stroke="#8d8d8d"></path><path d="M667 604L817 604L740 600Z" fill="#b9b9b9" stroke="#b9b9b9"></path><path d="M793 600L817 604L824 533Z" fill="#8d8d8d" stroke="#8d8d8d"></path><path d="M20 0L0 23L42 49Z" fill="#8d8d8d" stroke="#8d8d8d"></path><path d="M900 147L900 99L833 126Z" fill="#a3a3a3" stroke="#a3a3a3"></path><path d="M903 214L900 99L900 147Z" fill="#e7e7e7" stroke="#e7e7e7"></path><path d="M-3 400L0 571L0 527Z" fill="#c4c4c4" stroke="#c4c4c4"></path><path d="M0 527L0 571L53 591Z" fill="#b9b9b9" stroke="#b9b9b9"></path><path d="M304 -5L0 0L20 0Z" fill="#8d8d8d" stroke="#8d8d8d"></path><path d="M20 0L0 0L0 23Z" fill="#ffffff" stroke="#ffffff"></path><path d="M0 23L0 0L-5 111Z" fill="#d0d0d0" stroke="#d0d0d0"></path><path d="M900 600L900 500L824 533Z" fill="#f3f3f3" stroke="#f3f3f3"></path><path d="M900 452L900 500L903 214Z" fill="#e7e7e7" stroke="#e7e7e7"></path><path d="M817 604L848 600L824 533Z" fill="#a3a3a3" stroke="#a3a3a3"></path><path d="M903 214L900 62L900 99Z" fill="#c4c4c4" stroke="#c4c4c4"></path><path d="M900 99L900 62L833 126Z" fill="#aeaeae" stroke="#aeaeae"></path><path d="M-3 400L0 600L0 571Z" fill="#f3f3f3" stroke="#f3f3f3"></path><path d="M0 571L0 600L53 591Z" fill="#c4c4c4" stroke="#c4c4c4"></path><path d="M60 600L0 600L667 604Z" fill="#f3f3f3" stroke="#f3f3f3"></path><path d="M903 214L900 0L900 62Z" fill="#989898" stroke="#989898"></path><path d="M900 62L900 0L826 0Z" fill="#8d8d8d" stroke="#8d8d8d"></path><path d="M826 0L900 0L304 -5Z" fill="#ffffff" stroke="#ffffff"></path><path d="M817 604L900 600L848 600Z" fill="#d0d0d0" stroke="#d0d0d0"></path><path d="M848 600L900 600L824 533Z" fill="#aeaeae" stroke="#aeaeae"></path><path d="M900 500L900 600L903 214Z" fill="#a3a3a3" stroke="#a3a3a3"></path></g></svg>